<?xml version="1.0" standalone="no"?>
<!DOCTYPE svg PUBLIC "-//W3C//DTD SVG 1.1//EN" "http://www.w3.org/Graphics/SVG/1.1/DTD/svg11.dtd" >
<svg xmlns="http://www.w3.org/2000/svg" xmlns:xlink="http://www.w3.org/1999/xlink" version="1.1">
<metadata></metadata>
<defs>
<font id="yeseva_oneregular" horiz-adv-x="1146" >
<font-face units-per-em="2048" ascent="1638" descent="-410" />
<missing-glyph horiz-adv-x="573" />
<glyph horiz-adv-x="0" />
<glyph horiz-adv-x="682" />
<glyph unicode=" "  horiz-adv-x="573" />
<glyph unicode="&#x09;" horiz-adv-x="573" />
<glyph unicode="&#xa0;" horiz-adv-x="573" />
<glyph unicode="!" horiz-adv-x="634" d="M123 1229q0 104 57.5 169.5t136.5 65.5t137 -65.5t58 -169.5l-164 -789h-61zM164 143q0 68 45.5 116t107.5 48t108 -48t46 -116t-46 -115.5t-108 -47.5t-107.5 47.5t-45.5 115.5z" />
<glyph unicode="&#x22;" horiz-adv-x="757" d="M92 1311q0 68 34 105.5t89 37.5t89 -37.5t34 -105.5l-82 -400h-82zM420 1311q0 68 34 105.5t89 37.5t89 -37.5t34 -105.5l-82 -400h-82z" />
<glyph unicode="#" horiz-adv-x="1331" d="M41 379v102h256l121 471h-275v103h301l99 379h123l-99 -379h369l98 379h123l-98 -379h231v-103h-258l-121 -471h277v-102h-303l-97 -379h-122l96 379h-369l-96 -379h-123l96 379h-229zM420 481h368l121 471h-368z" />
<glyph unicode="$" horiz-adv-x="1218" d="M72 -10v389h82q2 -8 6 -20.5t20 -50t35.5 -71.5t53.5 -75.5t74 -71t97.5 -50t122.5 -20.5q16 0 31 3v524q-23 14 -64.5 38t-68 39.5t-66 40.5t-66 45t-60 48.5t-55.5 54.5t-45 60t-36.5 68.5t-22 77t-8.5 87.5q0 153 127 254t365 104v133h61v-137q46 -5 92 -20t78 -33 t57 -35.5t38 -29.5l12 -11q18 32 46 60.5t47 40.5l19 12h52v-389h-82q-2 7 -6 19.5t-18.5 49t-32.5 69.5t-48.5 74t-65 70.5t-84 50.5t-104.5 23v-504q36 -23 94 -57t100.5 -59.5t95 -60.5t88.5 -71t68.5 -79.5t49 -97t16.5 -113.5q0 -78 -32 -146.5t-94 -123t-161.5 -88.5 t-224.5 -40v-135h-61v133q-64 1 -124.5 15t-101 33.5t-72 38.5t-46.5 32l-14 14q-18 -32 -46.5 -60t-47.5 -40l-19 -12h-51zM451 1188q0 -131 143 -238v455q-62 -19 -102.5 -77.5t-40.5 -139.5zM655 35q76 25 120 88.5t44 152.5q0 69 -43 124t-121 108v-473z" />
<glyph unicode="%" horiz-adv-x="1536" d="M61 1096q0 160 95 259t243 99t243 -99t95 -259t-95 -259.5t-243 -99.5t-243 99.5t-95 259.5zM184 0l1055 1434h113l-1055 -1434h-113zM287 1096q0 -91 10 -156.5t27 -99t35.5 -48t39.5 -14.5t39.5 14.5t36 48t27.5 99t10 156.5t-10 156.5t-27.5 98.5t-36 47.5t-39.5 14.5 t-39.5 -14.5t-35.5 -47.5t-27 -98.5t-10 -156.5zM799 338q0 160 95 259t243 99t243 -99t95 -259t-95 -259t-243 -99t-243 99t-95 259zM1024 338q0 -91 10 -156.5t27.5 -99t36 -48t39.5 -14.5t39.5 14.5t35.5 48t27 99t10 156.5t-10 156.5t-27 98.5t-35.5 47.5t-39.5 14.5 t-39.5 -14.5t-36 -47.5t-27.5 -98.5t-10 -156.5z" />
<glyph unicode="&#x26;" horiz-adv-x="1413" d="M41 328q0 63 22 117.5t57 92t77.5 68.5t85.5 49t78 30.5t57 16.5l22 5l-112 163q-103 151 -103 277q0 137 110.5 227t309.5 90q49 0 96.5 -13.5t80.5 -33t59 -39.5t39 -34l12 -13q18 32 46 60.5t47 40.5l19 12h52v-389h-82q-2 7 -6 20t-18 50.5t-31 71t-45 75t-59.5 71 t-76 50t-92.5 20.5q-64 0 -109 -51t-45 -133q0 -105 127 -277l365 -512q8 13 20 36t32 93t20 138l-164 61v31h379v-31l-164 -61q0 -73 -22 -152.5t-44 -122.5l-22 -43l231 -328l103 -30v-31h-287q-82 0 -143 27.5t-93 74.5q-4 -5 -12 -14t-36 -32t-60 -40.5t-83 -32 t-106 -14.5q-532 0 -532 359zM389 328q0 -147 64 -227.5t161 -80.5q37 0 74 12.5t63.5 31t47 36.5t31.5 30l10 13l-369 523q-3 -3 -8.5 -9.5t-20 -33t-25 -61t-19.5 -97.5t-9 -137z" />
<glyph unicode="'" horiz-adv-x="430" d="M92 1311q0 68 34 105.5t89 37.5t89 -37.5t34 -105.5l-82 -400h-82z" />
<glyph unicode="(" horiz-adv-x="727" d="M102 543q0 174 45.5 334t127 288t181.5 230t220 182l20 -31q-121 -158 -183 -419.5t-62 -583.5t62 -584t183 -420l-20 -31q-120 80 -220 182t-181.5 230.5t-127 288.5t-45.5 334z" />
<glyph unicode=")" horiz-adv-x="727" d="M31 -461q121 158 183 420t62 584t-62 583.5t-183 419.5l20 31q120 -80 220 -182t181.5 -230t127 -288t45.5 -334t-45.5 -334t-127 -288.5t-181.5 -230.5t-220 -182z" />
<glyph unicode="*" horiz-adv-x="798" d="M87 1001q12 35 46 54l205 51l-205 51q-34 19 -46 54t5 69t58.5 43t74.5 -12l144 -154l-62 205q0 38 27 65t65 27t65.5 -27t27.5 -65l-62 -205l143 154q33 21 75 12t59 -43t5 -69t-46 -54l-205 -51l205 -51q34 -19 46 -54t-5 -69t-59 -43t-75 12l-143 154l62 -205 q0 -38 -27.5 -65t-65.5 -27t-65 27t-27 65l62 205l-144 -154q-33 -21 -74.5 -12t-58.5 43t-5 69z" />
<glyph unicode="+" horiz-adv-x="1054" d="M72 635v92h409v440h92v-440h410v-92h-410v-440h-92v440h-409z" />
<glyph unicode="," horiz-adv-x="501" d="M92 133q0 61 46 107.5t108 46.5q70 0 117 -51t47 -134t-25.5 -151.5t-61.5 -107t-72 -65t-61 -35.5l-26 -9l-21 51q7 2 18 6.5t41 22.5t54.5 41.5t48.5 64.5t33 90q-41 -30 -92 -30q-62 0 -108 46t-46 107z" />
<glyph unicode="-" horiz-adv-x="962" d="M72 614v93h819v-93h-819z" />
<glyph unicode="." horiz-adv-x="491" d="M92 133q0 61 46 107.5t108 46.5q61 0 107 -46t46 -108q0 -61 -45.5 -107t-107.5 -46t-108 46t-46 107z" />
<glyph unicode="/" horiz-adv-x="716" d="M-41 -102l707 1638h92l-707 -1638h-92z" />
<glyph unicode="0" horiz-adv-x="1372" d="M92 717q0 176 46.5 319t127.5 235.5t188.5 142.5t231.5 50t231.5 -50t188.5 -142.5t127.5 -235.5t46.5 -319t-46.5 -319t-127.5 -236t-188.5 -143t-231.5 -50t-231.5 50t-188.5 143t-127.5 236t-46.5 319zM451 717q0 -707 235 -707q236 0 236 707q0 706 -236 706 q-235 0 -235 -706z" />
<glyph unicode="1" horiz-adv-x="849" d="M31 1096l372 338h222v-1362l143 -41v-31h-625v31l144 41v1124l-215 -152z" />
<glyph unicode="2" horiz-adv-x="1177" d="M61 0v92q0 80 22.5 153.5t60 131.5t87 112.5t103.5 102.5t108 95t103.5 96.5t87 100.5t60 113t22.5 129q0 134 -66.5 210.5t-169.5 76.5q-45 0 -86 -7.5t-59 -15.5l-19 -8v-327q-41 -11 -82 -11q-69 0 -111 42.5t-42 111.5q0 48 28 94t80 85t138.5 63t193.5 24 q276 0 409.5 -110.5t133.5 -309.5q0 -79 -27 -146t-74 -116.5t-108 -92.5t-131.5 -79.5t-142.5 -71.5t-142.5 -73.5t-129.5 -80.5t-105.5 -98.5t-69.5 -121.5h758q6 46 20.5 88t31.5 69.5t33.5 48.5t27.5 30l10 10h61v-410h-1014z" />
<glyph unicode="3" horiz-adv-x="1198" d="M51 236q0 69 42.5 111t111.5 42q18 0 38.5 -2.5t32.5 -4.5l11 -3v-328q62 -31 164 -31q141 0 219 88t78 261q0 178 -74.5 268t-202.5 90h-102v51h102q91 0 153 82.5t62 235.5q0 154 -63.5 235.5t-161.5 81.5q-36 0 -72 -7.5t-54 -15.5l-18 -8v-327q-40 -11 -81 -11 q-69 0 -111.5 42.5t-42.5 111.5q0 47 27.5 93.5t78.5 85.5t133 63t181 24q130 0 233.5 -30t167.5 -81t97.5 -117t33.5 -140q0 -67 -24.5 -122t-63 -89t-85.5 -59.5t-94 -38t-85.5 -19.5t-63.5 -8l-24 -2q10 0 28.5 -1.5t70.5 -10t99.5 -22t105.5 -43.5t99.5 -69t70 -102.5 t28.5 -140.5q0 -87 -34.5 -158t-105.5 -126t-189 -85.5t-275 -30.5q-107 0 -193.5 24t-139 63.5t-80.5 85.5t-28 94z" />
<glyph unicode="4" horiz-adv-x="1228" d="M0 440l768 1014h195v-983h215v-92h-215v-307l143 -41v-31h-625v31l144 41v307h-584zM113 471h512v676z" />
<glyph unicode="5" horiz-adv-x="1167" d="M72 236q0 69 42 111t111 42q18 0 38.5 -2.5t32.5 -4.5l11 -3v-328q62 -31 164 -31q123 0 194.5 100.5t71.5 319.5q0 215 -73.5 312.5t-212.5 97.5q-43 0 -88.5 -13.5t-79.5 -33t-62 -39.5t-43 -34l-14 -13l-41 31l82 686h604q6 46 20.5 88t31.5 69.5t33.5 48t27.5 30.5 l10 9h61v-399h-743l-55 -471q5 4 14.5 10t40 22t63 28t81.5 22t98 10q298 0 445.5 -123t147.5 -338q0 -221 -144 -346t-429 -125q-207 0 -323.5 82t-116.5 185z" />
<glyph unicode="6" horiz-adv-x="1269" d="M102 717q0 368 160.5 557.5t444.5 189.5q180 0 289.5 -82.5t109.5 -183.5q0 -69 -42.5 -111.5t-111.5 -42.5q-18 0 -38.5 3t-31.5 5l-12 3v327q-61 31 -122 31q-59 0 -102 -16t-81.5 -58.5t-62.5 -115t-37.5 -189t-13.5 -276.5q3 5 8.5 13.5t27 29.5t46 37t66 29.5 t87.5 13.5q226 0 359 -123t133 -318q0 -218 -136.5 -344.5t-386.5 -126.5q-125 0 -225 44t-174 133.5t-114 234t-40 336.5zM461 492q0 -136 17 -234.5t46 -150t61.5 -74.5t69.5 -23q29 0 58 22t56 67t43.5 128.5t16.5 192.5q0 110 -17 192.5t-44.5 128t-58.5 67t-64 21.5 q-83 0 -133.5 -81.5t-50.5 -255.5z" />
<glyph unicode="7" horiz-adv-x="1085" d="M61 1034v400h973v-93q0 -92 -28 -188.5t-70 -177t-91.5 -186t-91.5 -211.5t-70 -258t-28 -320h-358q0 142 30 268t81 221.5t113 180t130.5 159.5t129 143.5t113.5 148.5t79 159h-727q-6 -46 -20.5 -88t-31.5 -69.5t-33.5 -48.5t-26.5 -30l-11 -10h-62z" />
<glyph unicode="8" horiz-adv-x="1259" d="M82 338q0 113 98.5 217.5t239.5 151.5q-134 75 -205.5 167t-71.5 222q0 163 133 265.5t390 102.5q191 0 310.5 -98.5t119.5 -228.5q0 -97 -83.5 -186.5t-193.5 -121.5q185 -80 282 -194t97 -277q0 -79 -36 -147.5t-106.5 -123.5t-186.5 -86.5t-265 -31.5 q-257 0 -389.5 103t-132.5 266zM256 338q0 -131 95.5 -224.5t232.5 -93.5q130 0 203 73t73 204q0 99 -98 199.5t-260 169.5q-114 -41 -180 -122.5t-66 -205.5zM481 1157q0 -164 277 -287q77 34 125.5 100.5t48.5 166.5q0 113 -75.5 194.5t-170.5 81.5q-88 0 -146.5 -68.5 t-58.5 -187.5z" />
<glyph unicode="9" horiz-adv-x="1269" d="M92 993q0 219 136 345t386 126q257 0 405 -185t148 -562q0 -368 -160 -558t-444 -190q-180 0 -289.5 83t-109.5 184q0 69 42 111t111 42q18 0 38.5 -2.5t32.5 -4.5l11 -3v-328q62 -31 123 -31q59 0 102 16t81.5 59t62.5 115.5t37.5 189t13.5 276.5q-3 -5 -8.5 -13.5 t-27 -29.5t-46 -37t-66 -29.5t-87.5 -13.5q-227 0 -359.5 122.5t-132.5 317.5zM440 1014q0 -110 17 -193t45 -128t59 -67t64 -22q83 0 133.5 82t50.5 256q0 110 -11.5 195.5t-30.5 138t-45 87t-52.5 47.5t-55.5 13t-58 -21.5t-56 -66.5t-43.5 -128.5t-16.5 -192.5z" />
<glyph unicode=":" horiz-adv-x="491" d="M92 133q0 61 46 107.5t108 46.5q61 0 107 -46t46 -108q0 -61 -45.5 -107t-107.5 -46t-108 46t-46 107zM92 891q0 61 46 107t108 46t107.5 -46t45.5 -107q0 -62 -46 -108t-107 -46q-62 0 -108 46.5t-46 107.5z" />
<glyph unicode=";" horiz-adv-x="501" d="M92 133q0 61 46 107.5t108 46.5q70 0 117 -51t47 -134t-25.5 -151.5t-61.5 -107t-72 -65t-61 -35.5l-26 -9l-21 51q7 2 18 6.5t41 22.5t54.5 41.5t48.5 64.5t33 90q-41 -30 -92 -30q-62 0 -108 46t-46 107zM92 891q0 61 46 107t108 46t107.5 -46t45.5 -107 q0 -62 -46 -108t-107 -46q-62 0 -108 46.5t-46 107.5z" />
<glyph unicode="&#x3c;" horiz-adv-x="1034" d="M51 512l912 512v-113l-707 -399l707 -399v-113z" />
<glyph unicode="=" horiz-adv-x="942" d="M72 481v92h798v-92h-798zM72 788v93h798v-93h-798z" />
<glyph unicode="&#x3e;" horiz-adv-x="1034" d="M72 0v113l706 399l-706 399v113l911 -512z" />
<glyph unicode="?" d="M31 1198q0 48 28 94t80 85t138.5 63t193.5 24q153 0 270.5 -32t189.5 -89.5t108 -133t36 -165.5q0 -173 -128.5 -288t-383.5 -152l-10 -164h-82l-10 195q83 33 136 78.5t86.5 128.5t33.5 202q0 195 -71.5 282t-215.5 87q-45 0 -86 -7.5t-60 -15.5l-18 -8v-327 q-41 -11 -82 -11q-69 0 -111 42.5t-42 111.5zM348 143q0 68 46 116t108 48t107.5 -48t45.5 -116t-45.5 -115.5t-107.5 -47.5t-108 47.5t-46 115.5z" />
<glyph unicode="@" horiz-adv-x="1720" d="M82 594q0 166 61.5 314.5t166 254.5t248 168t302.5 62t302.5 -62t248 -168t166 -254.5t61.5 -314.5q0 -199 -100.5 -319.5t-237.5 -120.5q-63 0 -114.5 9t-84.5 23.5t-58.5 32t-38 34.5t-20 31.5t-9.5 23.5l-2 9q-2 -7 -5.5 -18t-20.5 -39t-40 -49.5t-65 -39t-94 -17.5 q-149 0 -243.5 102t-94.5 276q0 232 135.5 362t386.5 130h297v-666q0 -73 32 -113t80 -40q36 0 74.5 25.5t73 72t56.5 123.5t22 168q0 154 -56 291.5t-151 235t-225.5 154t-274.5 56.5t-274 -56.5t-225 -154t-151 -235t-56 -291.5t56 -291.5t151 -235t225 -154t274 -56.5 q63 0 126 12.5t108.5 30.5t82 36.5t54.5 31.5l18 12l31 -52q-7 -5 -20 -14t-56.5 -32t-89.5 -40.5t-115.5 -32t-138.5 -14.5q-159 0 -302.5 62t-248 168t-166 254.5t-61.5 314.5zM707 532q0 -112 18.5 -183.5t44.5 -97.5t59 -26q32 0 57.5 30.5t35.5 61.5l10 31v625 q-225 0 -225 -441z" />
<glyph unicode="A" horiz-adv-x="1392" d="M-41 0v31l164 61l563 1362h62l583 -1393l103 -30v-31h-246q-201 0 -275 174l-104 246h-490l-135 -328l154 -61v-31h-379zM340 471h448l-225 539z" />
<glyph unicode="B" horiz-adv-x="1392" d="M102 0v31l123 30v1311l-123 31v31h553q160 0 279.5 -28t189 -78.5t103 -113.5t33.5 -139q0 -51 -16.5 -94.5t-44.5 -73.5t-64 -55t-76 -40t-80 -26t-76 -16t-64 -8t-45 -4h-16q12 0 31.5 -1t77 -8t110 -19.5t116 -40.5t109.5 -65.5t77.5 -98.5t31.5 -136 q0 -389 -635 -389h-594zM563 51h133q126 0 206.5 90.5t80.5 247.5t-80.5 247.5t-206.5 90.5h-133v-676zM563 778h92q103 0 179.5 85t76.5 212q0 134 -76.5 220.5t-179.5 86.5h-92v-604z" />
<glyph unicode="C" horiz-adv-x="1331" d="M92 717q0 353 177.5 550t469.5 197q54 0 107.5 -13.5t91 -33t67.5 -39.5t45 -34l15 -13q18 32 46.5 60.5t47.5 40.5l19 12h51v-389h-82q-2 7 -6 20t-19 50.5t-33.5 71t-49.5 75t-67 71t-87 50t-107 20.5q-52 0 -97.5 -21t-88.5 -71.5t-73.5 -128t-49 -199.5t-18.5 -276 q0 -697 378 -697q147 0 263 118.5t116 271.5h52q0 -179 -137.5 -310t-334.5 -131q-326 0 -511 195.5t-185 552.5z" />
<glyph unicode="D" horiz-adv-x="1464" d="M102 0v31l123 30v1311l-123 31v31h523q366 0 561.5 -188t195.5 -529t-195.5 -529t-561.5 -188h-523zM563 51h62q92 0 162.5 34t125 110t83 207t28.5 315t-28.5 315t-83 206.5t-125 109.5t-162.5 34h-62v-1331z" />
<glyph unicode="E" horiz-adv-x="1320" d="M102 0v31l123 30v1311l-123 31v31h1096v-369h-61q-5 4 -14 12t-32 37.5t-40.5 63t-32 89t-14.5 115.5h-441v-645h236q9 50 32 101.5t41 77.5l19 26h61v-461h-61q-8 10 -20.5 28.5t-37.5 72.5t-34 104h-236v-635h481q0 60 14 115t33.5 90.5t39 62t33.5 38.5l14 12h61v-369 h-1137z" />
<glyph unicode="F" horiz-adv-x="1249" d="M102 0v31l123 30v1311l-123 31v31h1096v-369h-61q-5 4 -14 12t-32 37.5t-40.5 63t-32 89t-14.5 115.5h-441v-645h236q9 50 32 101.5t41 77.5l19 26h61v-461h-61q-8 10 -20.5 28.5t-37.5 72.5t-34 104h-236v-625l123 -30v-31h-584z" />
<glyph unicode="G" horiz-adv-x="1433" d="M92 717q0 353 177.5 550t469.5 197q54 0 107.5 -13.5t91 -33t67.5 -39.5t45 -34l15 -13q18 32 46.5 60.5t47.5 40.5l19 12h51v-389h-82q-2 7 -6 20t-19 50.5t-33.5 71t-49.5 75t-67 71t-87 50t-107 20.5q-52 0 -97.5 -21t-88.5 -71.5t-73.5 -128t-49 -199.5t-18.5 -276 q0 -155 16.5 -274.5t43.5 -194t66 -122.5t80.5 -66.5t90.5 -18.5q34 0 66 17t52.5 41t36 48t22.5 41l7 17v471l-123 31v30h584v-30l-123 -31v-686h-31q-66 0 -119 17t-81 41t-46.5 48t-24.5 41l-5 17q-3 -8 -10 -20t-32.5 -44t-56.5 -56.5t-84.5 -44.5t-113.5 -20 q-116 0 -219.5 50t-182.5 142.5t-125.5 236.5t-46.5 319z" />
<glyph unicode="H" horiz-adv-x="1566" d="M102 0v31l123 30v1311l-123 31v31h584v-31l-123 -31v-635h441v635l-123 31v31h583v-31l-123 -31v-1311l123 -30v-31h-583v31l123 30v625h-441v-625l123 -30v-31h-584z" />
<glyph unicode="I" horiz-adv-x="788" d="M102 0v31l123 30v1311l-123 31v31h584v-31l-123 -31v-1311l123 -30v-31h-584z" />
<glyph unicode="J" horiz-adv-x="1126" d="M0 195q0 69 42.5 111t111.5 42q18 0 38.5 -2.5t31.5 -5.5l12 -2v-307q41 -21 102 -21q246 0 246 400v962l-123 31v31h583v-31l-122 -31v-962q0 -213 -133 -327t-410 -114q-187 0 -283 66t-96 160z" />
<glyph unicode="K" horiz-adv-x="1413" d="M102 0v31l123 30v1311l-123 31v31h584v-31l-123 -31v-643l502 612l-154 62v31h389v-31l-163 -62l-359 -440l553 -840l103 -30v-31h-287q-162 0 -277 174l-307 471v-584l123 -30v-31h-584z" />
<glyph unicode="L" horiz-adv-x="1249" d="M102 0v31l123 30v1311l-123 31v31h584v-31l-123 -31v-1321h441q0 60 13.5 115t33 90.5t39.5 62t34 38.5l13 12h61v-369h-1096z" />
<glyph unicode="M" horiz-adv-x="2017" d="M61 0v31l164 61v1280l-123 31v31h256q108 0 170.5 -44.5t106.5 -129.5l446 -854l342 854q24 61 53.5 96.5t84 56.5t139.5 21h215v-31l-123 -31v-1311l123 -30v-31h-584v31l123 30v1117l-481 -1198h-62l-624 1198v-1086l164 -61v-31h-390z" />
<glyph unicode="N" horiz-adv-x="1515" d="M61 0v31l164 61v1270l-143 41v31h215q58 0 105 -12.5t82.5 -38t54.5 -44t45 -49.5l655 -768v819l-164 62v31h389v-31l-164 -62v-1372h-61l-952 1116v-993l164 -61v-31h-390z" />
<glyph unicode="O" horiz-adv-x="1515" d="M92 717q0 355 180.5 551t485.5 196t485 -196t180 -551t-180 -551.5t-485 -196.5t-485.5 196.5t-180.5 551.5zM451 717q0 -157 18.5 -281.5t48.5 -202.5t70.5 -129.5t82.5 -72.5t87 -21t87 21t82.5 72.5t70.5 129.5t48.5 202.5t18.5 281.5t-18.5 281.5t-48.5 202.5 t-70.5 129.5t-82.5 72t-87 20.5t-87 -20.5t-82.5 -72t-70.5 -129.5t-48.5 -202.5t-18.5 -281.5z" />
<glyph unicode="P" horiz-adv-x="1382" d="M102 0v31l123 30v1311l-123 31v31h574q174 0 297.5 -29.5t197 -88t107 -137.5t33.5 -186t-33.5 -186t-107 -137t-197 -87.5t-297.5 -29.5h-113v-492l123 -30v-31h-584zM563 604h113q129 0 208 98.5t79 290.5t-79 290.5t-208 98.5h-113v-778z" />
<glyph unicode="Q" horiz-adv-x="1515" d="M92 717q0 355 180.5 551t485.5 196t485 -196t180 -551q0 -303 -133.5 -491t-367.5 -236q0 -277 102 -277q18 0 33.5 5.5t21.5 10.5l6 5l21 -51q-41 -31 -143 -31q-167 0 -268 95t-101 243q-234 47 -368 235.5t-134 491.5zM451 717q0 -157 18.5 -281.5t48.5 -202.5 t70.5 -129.5t82.5 -72.5t87 -21t87 21t82.5 72.5t70.5 129.5t48.5 202.5t18.5 281.5t-18.5 281.5t-48.5 202.5t-70.5 129.5t-82.5 72t-87 20.5t-87 -20.5t-82.5 -72t-70.5 -129.5t-48.5 -202.5t-18.5 -281.5z" />
<glyph unicode="R" horiz-adv-x="1433" d="M102 0v31l123 30v1311l-123 31v31h543q145 0 257 -19t186.5 -53.5t122.5 -85t68.5 -110t20.5 -132.5q0 -77 -27 -140t-70.5 -101.5t-96 -66.5t-104.5 -41t-95.5 -20.5t-70.5 -8.5l-27 -1q10 0 28 -1t66.5 -11t90 -27.5t86 -55t67.5 -89.5l184 -410l103 -30v-31h-287 q-169 0 -246 174l-205 461h-133v-574l144 -30v-31h-605zM563 686h82q141 0 224 91t83 257t-83 257t-224 91h-82v-696z" />
<glyph unicode="S" horiz-adv-x="1218" d="M72 -10v389h82q2 -8 6 -20.5t20 -50t35.5 -71.5t53.5 -75.5t74 -71t97.5 -50t122.5 -20.5q115 0 185.5 70t70.5 186q0 50 -25 95t-67 81t-96.5 70.5t-114.5 68.5t-120.5 70.5t-115 81.5t-96.5 96t-67 119.5t-25 147.5q0 155 130 256.5t372 101.5q55 0 108.5 -13.5 t91.5 -33t68 -39.5t45 -34l15 -13q18 32 46 60.5t47 40.5l19 12h51v-389h-81q-2 7 -6 20t-19 50.5t-33.5 71t-49.5 75t-67 71t-87 50t-107 20.5q-79 0 -137 -64t-58 -161q0 -56 25 -105t67 -87t96.5 -74t115 -70.5t120.5 -70t114.5 -77.5t96.5 -89.5t67 -110.5t25 -135 q0 -171 -146 -285.5t-417 -114.5q-66 0 -128.5 13.5t-104 33t-73.5 39.5t-47 33l-15 14q-18 -32 -46.5 -60t-47.5 -40l-19 -12h-51z" />
<glyph unicode="T" horiz-adv-x="1300" d="M51 1065v369h1198v-369h-61q-5 4 -14 12t-32 37.5t-40.5 63t-32 89t-14.5 115.5h-236v-1321l123 -30v-31h-584v31l123 30v1321h-235q0 -60 -13.5 -115t-33 -90t-39.5 -61.5t-34 -38.5l-13 -12h-62z" />
<glyph unicode="U" horiz-adv-x="1454" d="M72 1403v31h583v-31l-123 -31v-860q0 -265 81.5 -378.5t236.5 -113.5q69 0 135 34.5t118.5 96t84 156t31.5 205.5v829l-164 62v31h389v-31l-164 -62v-829q0 -248 -133.5 -395.5t-337.5 -147.5q-302 0 -458 142.5t-156 400.5v860z" />
<glyph unicode="V" horiz-adv-x="1361" d="M-41 1403v31h246q198 0 276 -174l363 -826l334 907l-154 62v31h379v-31l-164 -62l-502 -1361h-61l-615 1392z" />
<glyph unicode="W" horiz-adv-x="2017" d="M-41 1403v31h246q108 0 177.5 -49t98.5 -125l310 -789l180 528l-152 383l-112 21v31h245q108 0 177 -49t100 -125l309 -789l295 870l-154 62v31h379v-31l-164 -62l-460 -1361h-62l-368 935l-318 -935h-61l-553 1402z" />
<glyph unicode="X" horiz-adv-x="1361" d="M-10 1403v31h297q100 0 162.5 -44t113.5 -130l197 -336l284 417l-153 62v31h389v-31l-164 -62l-321 -473l475 -807l102 -30v-31h-297q-100 0 -162.5 44t-113.5 130l-221 375l-312 -457l154 -61v-31h-389v31l164 61l348 514l-451 766z" />
<glyph unicode="Y" horiz-adv-x="1361" d="M0 1403v31h256q108 0 171 -44.5t105 -129.5l304 -605l311 686l-154 62v31h389v-31l-163 -62l-359 -788v-492l123 -30v-31h-584v31l123 30v471l-420 840z" />
<glyph unicode="Z" horiz-adv-x="1300" d="M82 0v51l760 1331h-535q0 -60 -13.5 -115t-33.5 -90t-39.5 -61.5t-32.5 -38.5l-14 -12h-61v369h1106v-52l-758 -1331h553q0 60 13.5 115t33 90.5t39.5 62t34 38.5l13 12h61v-369h-1126z" />
<glyph unicode="[" horiz-adv-x="716" d="M174 -451v1926h522v-52h-194v-1822h194v-52h-522z" />
<glyph unicode="\" horiz-adv-x="716" d="M-41 1536h92l707 -1638h-92z" />
<glyph unicode="]" horiz-adv-x="716" d="M20 -399h195v1822h-195v52h523v-1926h-523v52z" />
<glyph unicode="^" horiz-adv-x="983" d="M61 881l431 594l430 -594h-123l-307 419l-308 -419h-123z" />
<glyph unicode="_" horiz-adv-x="798" d="M0 -113h799v-92h-799v92z" />
<glyph unicode="`" horiz-adv-x="450" d="M41 1434h266l82 -308h-72z" />
<glyph unicode="a" horiz-adv-x="1239" d="M102 246q0 55 18 111t36 85l18 29q33 8 90.5 20.5t209 35t274.5 26.5v61q0 117 -14.5 196t-45 123t-70.5 62.5t-96 18.5q-27 0 -52.5 -5t-37.5 -11l-12 -5v-307q-41 -10 -82 -10q-69 0 -111.5 42t-42.5 111q0 94 96 160t283 66q241 0 376.5 -122t135.5 -319v-553l123 -30 v-31h-184q-55 0 -99 16t-68.5 38.5t-41 45t-21.5 38.5l-6 16q-3 -8 -10 -20t-32.5 -44t-56.5 -56.5t-84.5 -44.5t-113.5 -20q-184 0 -281.5 77.5t-97.5 199.5zM440 266q0 -114 36 -169.5t87 -55.5q34 0 66 17t52.5 41t36.5 48t23 41l7 17v297q-55 0 -121.5 -5t-106.5 -11 l-39 -5q-41 -92 -41 -215z" />
<glyph unicode="b" horiz-adv-x="1259" d="M41 1403v31h266q185 0 185 -185v-276q4 3 11 8.5t30.5 20t49 25t65 19.5t79.5 9q205 0 328 -140.5t123 -402.5q0 -259 -117.5 -401t-302.5 -142q-60 0 -113 19t-85 46t-56 54.5t-34 46.5l-9 19q-2 -7 -6 -18t-24 -39t-47.5 -50t-80.5 -39.5t-119 -17.5h-20v1382zM492 205 q2 -7 7 -18t22.5 -39t37 -50t51.5 -39.5t66 -17.5q153 0 153 471q0 144 -14 242.5t-40.5 148.5t-57 70t-72.5 20q-36 0 -74.5 -20.5t-58.5 -40.5l-20 -21v-706z" />
<glyph unicode="c" horiz-adv-x="1085" d="M82 512q0 254 146.5 398.5t406.5 144.5q187 0 283 -66t96 -160q0 -69 -42.5 -111t-111.5 -42q-18 0 -38.5 2.5t-31.5 5.5l-12 2v307q-41 21 -102 21q-57 0 -99.5 -23t-76.5 -77.5t-52 -155.5t-18 -246q0 -142 18 -240.5t52 -152t76.5 -76.5t99.5 -23q120 0 208.5 82.5 t88.5 184.5h51q0 -128 -109 -223t-280 -95q-260 0 -406.5 144.5t-146.5 398.5z" />
<glyph unicode="d" horiz-adv-x="1269" d="M82 512q0 262 122.5 402.5t327.5 140.5q40 0 79 -8.5t66 -20.5t48.5 -24t32.5 -20l10 -9v399l-123 31v31h266q185 0 185 -185v-1188l123 -30v-31h-185q-55 0 -99 16t-68.5 38.5t-40.5 45t-22 38.5l-5 16q-3 -8 -10 -20t-32.5 -44t-56.5 -56.5t-84.5 -44.5t-113.5 -20 q-185 0 -302.5 142t-117.5 401zM430 512q0 -471 154 -471q34 0 66 17t52.5 41t36 48t22.5 41l7 17v706l-8.5 8.5t-22 20t-34 25t-42 19.5t-47.5 9q-42 0 -72.5 -20t-57 -70t-40.5 -148.5t-14 -242.5z" />
<glyph unicode="e" d="M82 512q0 251 138 397t364 146q224 0 357.5 -118t133.5 -292q0 -32 -5 -63t-10 -46l-5 -14q-33 -7 -91.5 -17t-223 -27t-310.5 -17q0 -123 18 -211t52 -137t77 -71t99 -22q120 0 208.5 82.5t88.5 184.5h51q0 -128 -109 -223t-280 -95q-260 0 -406.5 144.5t-146.5 398.5z M430 512q82 0 153.5 5t102.5 10l31 5q20 72 20 154q0 170 -45 249t-108 79q-154 0 -154 -502z" />
<glyph unicode="f" horiz-adv-x="870" d="M51 932v51h144v102q0 165 117 272t313 107q160 0 249 -66.5t89 -158.5q0 -69 -42.5 -111.5t-111.5 -42.5q-18 0 -38.5 2.5t-32.5 5.5l-11 3v317q-30 10 -61 10q-33 0 -57.5 -14.5t-45 -50.5t-31 -104.5t-10.5 -168.5v-102h328v-51h-328v-871l123 -30v-31h-573v31l123 30 v871h-144z" />
<glyph unicode="g" horiz-adv-x="1239" d="M51 -215q0 69 42.5 111.5t111.5 42.5q22 0 42.5 -2.5t30.5 -5.5l9 -3v-286q123 -41 256 -41q129 0 225.5 20.5t150.5 56t79.5 77.5t25.5 91q0 60 -58.5 97t-187.5 37h-389q-154 0 -235.5 63.5t-81.5 161.5q0 46 20 86t48.5 64.5t57 42t48.5 24.5l20 8q-143 86 -143 266 q0 153 114 245.5t336 92.5q97 0 179 -19.5t129 -51.5q2 5 6.5 13t21 29t36.5 37.5t55 29.5t75 13q70 0 117 -49t47 -125q0 -60 -33 -96.5t-80 -36.5q-18 0 -36 2.5t-26 5.5l-9 2v246q-41 0 -74 -25.5t-46 -50.5l-13 -26q102 -86 102 -236q0 -153 -114.5 -245.5t-336.5 -92.5 q-145 0 -266 52q-3 -1 -8.5 -3.5t-20 -10t-25 -15.5t-19.5 -20t-9 -23q0 -34 35.5 -53t128.5 -19h389q154 0 241 -88.5t87 -249.5q0 -164 -136 -266t-407 -102q-112 0 -202 13.5t-147 36t-94.5 52.5t-53 60.5t-15.5 62.5zM430 696q0 -113 19.5 -181t49.5 -92t74 -24t74.5 24 t50 92t19.5 181t-19.5 181t-50 92t-74.5 24t-74 -24t-49.5 -92t-19.5 -181z" />
<glyph unicode="h" horiz-adv-x="1361" d="M82 0v31l123 30v1311l-123 31v31h266q184 0 184 -185v-327q3 5 10 14t31 32t52.5 40.5t75 32t98.5 14.5q172 0 285.5 -101.5t113.5 -236.5v-656l123 -30v-31h-266q-185 0 -185 184v533q0 128 -46.5 197t-106.5 69q-34 0 -66 -17t-52.5 -41t-36.5 -48t-23 -41l-7 -17v-758 l123 -30v-31h-573z" />
<glyph unicode="i" horiz-adv-x="696" d="M82 0v31l123 30v902l-123 30v31h266q184 0 184 -184v-779l123 -30v-31h-573zM195 1280q0 69 52.5 121.5t121.5 52.5t121.5 -52.5t52.5 -121.5t-52.5 -121.5t-121.5 -52.5t-121.5 52.5t-52.5 121.5z" />
<glyph unicode="j" horiz-adv-x="675" d="M-225 -246q0 69 42 111.5t111 42.5q18 0 38.5 -2.5t31.5 -5.5l12 -2v-287q21 -10 41 -10q63 0 103.5 77.5t40.5 260.5v1024l-123 30v31h266q184 0 184 -184v-901q0 -166 -120 -272.5t-330 -106.5q-154 0 -225.5 52t-71.5 142zM184 1280q0 69 52.5 121.5t121.5 52.5 t121.5 -52.5t52.5 -121.5t-52.5 -121.5t-121.5 -52.5t-121.5 52.5t-52.5 121.5z" />
<glyph unicode="k" horiz-adv-x="1228" d="M82 0v31l123 30v1311l-123 31v31h266q184 0 184 -185v-717l379 400l-153 61v31h389v-31l-164 -61l-235 -246l399 -625l102 -30v-31h-266q-99 0 -161 44t-115 130l-175 277v-390l123 -30v-31h-573z" />
<glyph unicode="l" horiz-adv-x="696" d="M82 0v31l123 30v1311l-123 31v31h266q184 0 184 -185v-1188l123 -30v-31h-573z" />
<glyph unicode="m" horiz-adv-x="1945" d="M82 0v31l123 30v902l-123 30v31h184q55 0 99 -16t68.5 -38.5t41 -45t21.5 -38.5l6 -16q3 8 10 20t31.5 44t53.5 56.5t77.5 44.5t103.5 20q119 0 209.5 -53.5t138.5 -141.5q3 8 10 21t31.5 46.5t53.5 59.5t78 47t104 21q166 0 272.5 -98.5t106.5 -239.5v-656l123 -30v-31 h-267q-184 0 -184 184v533q0 134 -40 200t-93 66q-45 0 -86 -41t-59 -82l-19 -41v-758l123 -30v-31h-573v31l122 30v656q0 134 -40 200t-93 66q-45 0 -86 -41t-60 -82l-18 -41v-758l123 -30v-31h-573z" />
<glyph unicode="n" horiz-adv-x="1361" d="M82 0v31l123 30v902l-123 30v31h184q55 0 99 -16t68.5 -38.5t41 -45t21.5 -38.5l6 -16q3 8 10 20t32.5 44t56.5 56.5t84.5 44.5t113.5 20q172 0 285.5 -101.5t113.5 -236.5v-656l123 -30v-31h-266q-185 0 -185 184v533q0 128 -46.5 197t-106.5 69q-34 0 -66 -17 t-52.5 -41t-36.5 -48t-23 -41l-7 -17v-758l123 -30v-31h-573z" />
<glyph unicode="o" horiz-adv-x="1249" d="M82 512q0 254 145 398.5t398 144.5t397.5 -144.5t144.5 -398.5t-144.5 -398.5t-397.5 -144.5t-398 144.5t-145 398.5zM430 512q0 -143 17 -245.5t46.5 -156t61.5 -77t70 -23.5t70 23.5t61 77t46 156t17 245.5t-17 245.5t-46 156t-61 77t-70 23.5t-70 -23.5t-61.5 -77 t-46.5 -156t-17 -245.5z" />
<glyph unicode="p" horiz-adv-x="1280" d="M61 -379l123 31v1311l-123 30v31h185q55 0 99 -16t68.5 -38.5t40.5 -45t22 -38.5l5 -16q3 8 10 20t32.5 44t56.5 56.5t84.5 44.5t113.5 20q185 0 302.5 -142t117.5 -401q0 -262 -122.5 -402.5t-327.5 -140.5q-40 0 -79 8.5t-66 20.5t-48.5 24t-32.5 20l-10 9v-399 l123 -31v-31h-574v31zM512 113l8.5 -8.5t22 -20t34 -25t42 -19.5t47.5 -9q42 0 72.5 20t57 70t40.5 148.5t14 242.5q0 471 -154 471q-34 0 -66 -17t-52.5 -41t-36 -48t-22.5 -41l-7 -17v-706z" />
<glyph unicode="q" horiz-adv-x="1259" d="M82 512q0 259 117.5 401t302.5 142q60 0 113 -19t85 -46.5t56 -54.5t34 -46l9 -19q2 7 6 18t23.5 39t47 50t80.5 39.5t119 17.5h21v-1382l123 -31v-31h-574v31l123 31v399q-4 -3 -11 -8.5t-31 -20t-49.5 -25t-65 -19.5t-79.5 -9q-205 0 -327.5 140.5t-122.5 402.5z M430 512q0 -144 14 -242.5t40.5 -148.5t57 -70t72.5 -20q36 0 74.5 20.5t59.5 40.5l20 21v706q-2 7 -7 18t-22.5 39t-37 50t-51.5 39.5t-66 17.5q-154 0 -154 -471z" />
<glyph unicode="r" horiz-adv-x="1034" d="M82 0v31l123 30v902l-123 30v31h184q55 0 99 -16t68.5 -38.5t41 -45t21.5 -38.5l6 -16q4 7 12 18t36.5 39t61 50t85.5 39.5t110 17.5q107 0 162 -50.5t55 -143.5q0 -69 -42.5 -111.5t-111.5 -42.5q-18 0 -38.5 2.5t-31.5 5.5l-12 2v287q-46 0 -89 -17t-72 -41t-51.5 -48 t-33.5 -41l-10 -17v-758l123 -30v-31h-573z" />
<glyph unicode="s" horiz-adv-x="1105" d="M92 -10v348h82q2 -7 6 -18.5t18.5 -44.5t32 -63t47 -66.5t63.5 -63t81.5 -44.5t99.5 -18q84 0 129 43.5t45 120.5q0 45 -33 85t-85 71t-115.5 62t-127 67.5t-115.5 77.5t-85 100.5t-33 130.5q0 124 106 200.5t324 76.5q73 0 142.5 -28.5t103.5 -56.5l33 -28 q18 27 46.5 50t47.5 32l19 10h51v-348h-82q-2 7 -6 18.5t-18 44.5t-31 63t-44.5 66.5t-58.5 63t-73.5 44.5t-88.5 18q-55 0 -94 -41.5t-39 -102.5q0 -50 33 -93t85 -75.5t115.5 -64.5t127 -67.5t115.5 -75t85 -95.5t33 -123q0 -297 -471 -297q-55 0 -106.5 11.5t-86.5 28 t-62 33.5t-40 28l-12 12q-18 -27 -46.5 -50t-47.5 -32l-19 -10h-51z" />
<glyph unicode="t" horiz-adv-x="921" d="M31 973v51h143v102q0 185 184 185h144v-287h286v-51h-286v-625q0 -128 20 -202.5t51.5 -100t81.5 -25.5q74 0 129.5 71.5t55.5 195.5h51q0 -151 -75.5 -234.5t-201.5 -83.5q-202 0 -321 107t-119 272v625h-143z" />
<glyph unicode="u" horiz-adv-x="1331" d="M51 993v31h266q185 0 185 -184v-533q0 -128 46.5 -197t106.5 -69q34 0 66 17t52.5 41t36.5 48t23 41l7 17v758l-123 30v31h573v-31l-123 -30v-973h-20q-66 0 -119 17t-81 41t-47 48t-24 41l-6 17q-3 -8 -10 -20t-32.5 -44t-56.5 -56.5t-84.5 -44.5t-113.5 -20 q-172 0 -285.5 101.5t-113.5 236.5v656z" />
<glyph unicode="v" d="M-41 993v31h256q108 0 170.5 -44.5t106.5 -129.5l243 -473l228 555l-154 61v31h379v-31l-164 -61l-389 -952h-62l-512 983z" />
<glyph unicode="w" horiz-adv-x="1710" d="M-41 993v31h236q108 0 172 -45t104 -129l225 -471l117 299l-137 285l-103 30v31h236q108 0 172 -45t104 -129l226 -471l215 553l-154 61v31h379v-31l-164 -61l-379 -952h-61l-303 630l-250 -630h-62l-471 983z" />
<glyph unicode="x" horiz-adv-x="1136" d="M-10 993v31h276q52 0 93.5 -12t74.5 -37.5t57.5 -54t51.5 -70.5l104 -166l193 248l-154 61v31h389v-31l-164 -61l-233 -297l366 -574l103 -30v-31h-277q-99 0 -159 43t-117 131l-123 193l-215 -275l154 -61v-31h-390v31l164 61l254 326l-346 545z" />
<glyph unicode="y" d="M-41 993v31h256q107 0 169 -44t108 -130l256 -473l215 555l-154 61v31h379v-31l-164 -61l-410 -1055q-65 -166 -139 -241.5t-168 -75.5q-92 0 -143 49.5t-51 134.5q0 76 41.5 120t111.5 44q18 0 38.5 -2.5t31.5 -5.5l12 -2v-277q56 8 103.5 65t101.5 191l41 103l-533 983 z" />
<glyph unicode="z" horiz-adv-x="1116" d="M82 0v51l584 922h-369q0 -55 -13.5 -106.5t-33 -86.5t-39.5 -62t-33 -40l-14 -12h-62v358h932v-51l-583 -922h389q0 55 13.5 106.5t33 86.5t39.5 62t34 40l13 12h61v-358h-952z" />
<glyph unicode="{" horiz-adv-x="757" d="M61 481v62q72 0 113 50.5t41 154.5v419q0 129 107 218.5t292 89.5h123v-52h-20q-79 0 -126.5 -55.5t-47.5 -159.5v-379q0 -63 -18 -114t-47 -83t-64 -56.5t-70 -36t-64 -18.5t-47 -8l-18 -1q7 0 18.5 -1t46 -8t65.5 -18.5t68.5 -36t65 -56.5t46 -83t18.5 -114v-379 q0 -104 47.5 -159.5t126.5 -55.5h20v-52h-123q-185 0 -292 89.5t-107 218.5v419q0 104 -41 154.5t-113 50.5z" />
<glyph unicode="|" horiz-adv-x="460" d="M174 -410v1844h113v-1844h-113z" />
<glyph unicode="}" horiz-adv-x="757" d="M20 -399h21q79 0 126.5 55.5t47.5 159.5v379q0 63 18 114t47 83t64 56.5t70 36t64 18.5t47 8l18 1q-7 0 -18.5 1t-46 8t-65.5 18.5t-68.5 36t-65 56.5t-46 83t-18.5 114v379q0 104 -47.5 159.5t-126.5 55.5h-21v52h123q185 0 292.5 -89.5t107.5 -218.5v-419 q0 -104 40.5 -154.5t112.5 -50.5v-62q-72 0 -112.5 -50.5t-40.5 -154.5v-419q0 -129 -107.5 -218.5t-292.5 -89.5h-123v52z" />
<glyph unicode="~" horiz-adv-x="1054" d="M61 481q0 192 74 285.5t203 93.5q65 0 127.5 -24t104 -52.5t98 -52.5t110.5 -24q68 0 116 45.5t48 107.5h51q0 -193 -73 -286t-203 -93q-54 0 -103 16t-87.5 38.5t-75.5 45t-82 38.5t-93 16q-68 0 -115.5 -46t-47.5 -108h-52z" />
<glyph unicode="&#xa1;" horiz-adv-x="634" d="M123 -205l164 789h61l164 -789q0 -104 -58 -169.5t-137 -65.5t-136.5 65.5t-57.5 169.5zM164 881q0 68 45.5 115.5t107.5 47.5t108 -47.5t46 -115.5t-46 -116t-108 -48t-107.5 48t-45.5 116z" />
<glyph unicode="&#xa2;" horiz-adv-x="1085" d="M82 512q0 249 140 393t392 150v133h62v-135q166 -7 252 -72t86 -152q0 -69 -42.5 -111t-111.5 -42q-18 0 -38.5 2.5t-31.5 5.5l-12 2v307q-41 21 -102 21v-994q120 0 208.5 82.5t88.5 184.5h51q0 -121 -97 -212.5t-251 -103.5v-135h-62v133q-253 6 -392.5 149.5 t-139.5 393.5zM430 512q0 -122 13 -211t38 -145t57.5 -86.5t75.5 -42.5v979q-58 -15 -97.5 -64.5t-63 -157t-23.5 -272.5z" />
<glyph unicode="&#xa3;" horiz-adv-x="1228" d="M72 0v49q44 7 74.5 32.5t52 92t26.5 174.5l17 369h-150v61h152l12 266q9 196 130.5 308t340.5 112q185 0 271.5 -64t86.5 -159q0 -69 -42 -111.5t-111 -42.5q-18 0 -38.5 2.5t-31.5 5.5l-12 3v307q-21 18 -82 18q-37 0 -64.5 -16.5t-51.5 -57.5t-38.5 -117t-19.5 -188 l-12 -266h360v-61h-362l-17 -369q-3 -60 -24 -106.5t-49 -69.5t-55.5 -37.5t-46.5 -18.5l-19 -3h604q6 46 20.5 88t31.5 69.5t33.5 48t27.5 29.5l10 10h61v-358h-1085z" />
<glyph unicode="&#xa4;" horiz-adv-x="1413" d="M102 379v61h154v113h-154v61h154v758l-123 31v31h574q174 0 297.5 -29.5t196.5 -88t106.5 -137.5t33.5 -186t-33.5 -186t-106.5 -137t-196.5 -87.5t-297.5 -29.5h-113v-113h450v-61h-450v-318l123 -30v-31h-584v31l123 30v318h-154zM594 614h113q129 0 207.5 97t78.5 282 q0 192 -78.5 290.5t-207.5 98.5h-113v-768z" />
<glyph unicode="&#xa5;" horiz-adv-x="1361" d="M0 1403v31h256q108 0 171 -44.5t105 -129.5l304 -601l311 682l-154 62v31h389v-31l-163 -62l-324 -706h221v-62h-248l-8 -20v-102h256v-62h-256v-328l123 -30v-31h-584v31l123 30v328h-256v62h256v81l-20 41h-236v62h205l-369 737z" />
<glyph unicode="&#xa6;" horiz-adv-x="460" d="M174 328h113v-738h-113v738zM174 696v738h113v-738h-113z" />
<glyph unicode="&#xa7;" horiz-adv-x="1064" d="M82 481q0 93 70 168t206 109q-52 35 -89.5 67.5t-73 77t-54 101t-18.5 122.5q0 146 116.5 237t344.5 91q173 0 265.5 -66t92.5 -159q0 -69 -42.5 -111.5t-111.5 -42.5q-18 0 -38.5 2.5t-31.5 4.5l-11 3v318q-41 10 -82 10q-66 0 -115 -61.5t-49 -163.5q0 -60 29 -110.5 t75 -87t101.5 -71t111 -70.5t101.5 -77t75 -99.5t29 -129.5q0 -84 -69.5 -155.5t-206.5 -100.5q48 -27 83 -50t73.5 -58.5t63 -72.5t40.5 -88t16 -110q0 -156 -124 -247t-388 -91q-187 0 -283 66t-96 159q0 69 42.5 111.5t111.5 42.5q18 0 38.5 -2.5t31.5 -4.5l12 -3v-308 q41 -20 102 -20q101 0 158 60.5t57 174.5q0 51 -24 95.5t-64 76t-90.5 64t-103 59.5t-103 62t-90.5 72t-64 90.5t-24 115.5zM389 594q0 -49 27.5 -96.5t66.5 -80.5t78 -59t67 -38l27 -13q21 31 21 133q0 49 -27.5 96.5t-66.5 80.5t-78 59t-66 38l-28 13q-21 -31 -21 -133z " />
<glyph unicode="&#xa8;" horiz-adv-x="747" d="M41 1290q0 62 41 103t102 41q62 0 103 -41t41 -103q0 -61 -41 -102t-103 -41t-102.5 40.5t-40.5 102.5zM420 1290q0 62 41 103t102 41t102.5 -41t41.5 -103q0 -61 -41 -102t-103 -41q-61 0 -102 40.5t-41 102.5z" />
<glyph unicode="&#xa9;" horiz-adv-x="1720" d="M82 717q0 166 61.5 314.5t166 254.5t248 168t302.5 62t302.5 -62t248 -168t166 -254.5t61.5 -314.5t-61.5 -314.5t-166 -254.5t-248 -168t-302.5 -62t-302.5 62t-248 168t-166 254.5t-61.5 314.5zM154 717q0 -158 54.5 -296t148.5 -234.5t224.5 -151.5t278.5 -55 t278.5 55t225 151.5t149 234.5t54.5 296t-54.5 296t-149 234.5t-225 151.5t-278.5 55t-278.5 -55t-224.5 -151.5t-148.5 -234.5t-54.5 -296zM461 717q0 207 116.5 323.5t323.5 116.5q158 0 243 -60.5t85 -144.5q0 -62 -35.5 -97.5t-97.5 -35.5q-18 0 -38.5 2.5t-31.5 4.5 l-12 3v277q-31 10 -72 10q-37 0 -69.5 -21.5t-61.5 -66t-46 -124.5t-17 -187q0 -200 59 -294.5t145 -94.5q99 0 167.5 66t68.5 159h51q0 -111 -93 -194t-235 -83q-214 0 -332 116.5t-118 324.5z" />
<glyph unicode="&#xaa;" horiz-adv-x="849" d="M61 922q0 36 10.5 69.5t20.5 48.5l10 15q22 7 59.5 17t137.5 27t182 17v72q0 123 -32 174t-91 51q-17 0 -37.5 -2.5t-32.5 -4.5l-12 -3v-205q-30 -10 -71 -10q-46 0 -74.5 28t-28.5 74q0 69 73.5 116.5t223.5 47.5q146 0 227 -80.5t81 -226.5v-338l81 -21v-30h-122 q-40 0 -71.5 10.5t-48 25.5t-27.5 30t-14 26l-3 10q-2 -5 -5.5 -13.5t-18.5 -29.5t-34 -37t-53 -29.5t-74 -13.5q-125 0 -190.5 52t-65.5 133zM287 942q0 -71 29 -112.5t63 -41.5q27 0 52.5 27t37.5 55l12 27v178q-36 0 -77 -2.5t-64 -4.5l-23 -3q-30 -51 -30 -123z" />
<glyph unicode="&#xab;" horiz-adv-x="901" d="M31 512l532 471l51 -51l-378 -420l378 -420l-51 -51zM399 512l389 358l52 -51l-246 -307l246 -307l-52 -51z" />
<glyph unicode="&#xac;" horiz-adv-x="962" d="M61 655v93h840v-297h-92v204h-748z" />
<glyph unicode="&#xad;" horiz-adv-x="942" d="M61 614v93h820v-93h-820z" />
<glyph unicode="&#xae;" horiz-adv-x="1720" d="M82 717q0 166 61.5 314.5t166 254.5t248 168t302.5 62t302.5 -62t248 -168t166 -254.5t61.5 -314.5t-61.5 -314.5t-166 -254.5t-248 -168t-302.5 -62t-302.5 62t-248 168t-166 254.5t-61.5 314.5zM154 717q0 -158 54.5 -296t148.5 -234.5t224.5 -151.5t278.5 -55 t278.5 55t225 151.5t149 234.5t54.5 296t-54.5 296t-149 234.5t-225 151.5t-278.5 55t-278.5 -55t-224.5 -151.5t-148.5 -234.5t-54.5 -296zM430 287v30l102 21v758l-102 20v31h389q127 0 216.5 -18t140 -52t72.5 -77t22 -99q0 -57 -29.5 -100.5t-71.5 -64t-84.5 -33 t-72.5 -15.5l-29 -2q6 0 16 -1.5t37.5 -9.5t51.5 -20t50 -36t40 -56l102 -225l72 -21v-30h-205q-71 0 -121.5 36t-73.5 87l-112 256h-41v-328l102 -21v-30h-471zM799 707h20q81 0 122.5 50.5t41.5 143.5q0 90 -46.5 142.5t-117.5 52.5h-20v-389z" />
<glyph unicode="&#xaf;" horiz-adv-x="614" d="M41 1341v93h532v-93h-532z" />
<glyph unicode="&#xb0;" horiz-adv-x="757" d="M61 1137q0 134 87.5 225.5t230.5 91.5t230 -91.5t87 -225.5t-87 -226t-230 -92t-230.5 92t-87.5 226zM215 1137q0 -103 46 -159t118 -56t118 56t46 159t-46 159t-118 56t-118 -56t-46 -159z" />
<glyph unicode="&#xb1;" horiz-adv-x="1034" d="M61 655v93h410v419h92v-419h410v-93h-410v-379h-92v379h-410zM82 102v93h870v-93h-870z" />
<glyph unicode="&#xb2;" horiz-adv-x="706" d="M61 758v61q0 50 20 91.5t51.5 70.5t69.5 55.5t76.5 51.5t70 52.5t51.5 65.5t20 84q0 52 -31.5 87.5t-71.5 35.5q-17 0 -37.5 -2.5t-31.5 -4.5l-12 -3v-205q-31 -10 -72 -10q-46 0 -74.5 28t-28.5 74q0 69 73.5 116.5t223.5 47.5q140 0 213.5 -57.5t73.5 -147.5 q0 -69 -41.5 -120t-107.5 -83.5t-135 -58.5t-137 -61t-101 -76h389q4 41 24.5 82t39.5 62l18 20h41v-256h-574z" />
<glyph unicode="&#xb3;" horiz-adv-x="737" d="M61 901q0 46 28.5 74.5t74.5 28.5q18 0 36 -3t27 -5l9 -3v-205q42 -10 81 -10q62 0 98 40t36 114q0 75 -33.5 114t-89.5 39h-54v41h54q34 0 63 39.5t29 104.5q0 64 -29 103.5t-63 39.5q-17 0 -37.5 -2.5t-32.5 -4.5l-12 -3v-205q-31 -10 -72 -10q-46 0 -74 28t-28 74 q0 69 73.5 116.5t223.5 47.5q130 0 203 -54.5t73 -129.5q0 -43 -23 -76t-56.5 -49t-66.5 -25.5t-56 -11.5l-23 -2q10 0 27.5 -2t61.5 -12.5t78 -27t61.5 -51.5t27.5 -81q0 -83 -79.5 -139t-238.5 -56q-150 0 -223.5 47.5t-73.5 116.5z" />
<glyph unicode="&#xb4;" horiz-adv-x="450" d="M61 1126l82 308h267l-277 -308h-72z" />
<glyph unicode="&#xb5;" horiz-adv-x="1341" d="M61 -379l123 31v1311l-123 30v31h267q184 0 184 -184v-512q0 -128 46.5 -197.5t107.5 -69.5q34 0 66 17t52.5 41t36 48t22.5 41l7 17v738l-123 30v31h573v-31l-122 -30v-973h-21q-66 0 -119 19t-81 46t-46.5 54t-24.5 46l-5 19q-2 -7 -7.5 -19.5t-24 -44.5t-41 -56 t-61 -44t-81.5 -20q-29 0 -55 7.5t-43.5 17.5t-30.5 20.5t-19 18.5l-6 7v-286q0 -185 -184 -185h-267v31z" />
<glyph unicode="&#xb6;" horiz-adv-x="1208" d="M72 993q0 210 123 325.5t358 115.5h604v-62h-164v-1782h-112v1782h-215v-1782h-113v963q-235 0 -358 115t-123 325z" />
<glyph unicode="&#xb7;" horiz-adv-x="573" d="M133 717q0 68 46 116t108 48t107.5 -48t45.5 -116t-45.5 -116t-107.5 -48t-108 48t-46 116z" />
<glyph unicode="&#xb8;" horiz-adv-x="411" d="M41 -338q33 -20 74 -20q46 0 74 28t28 74t-30 74t-83 28v154h72v-102q89 0 142 -45t53 -109q0 -65 -56.5 -109.5t-158.5 -44.5q-27 0 -56 3t-44 5l-15 3v61z" />
<glyph unicode="&#xb9;" horiz-adv-x="583" d="M61 1208l226 226h153v-625l82 -21v-30h-389v30l82 21v461l-123 -92z" />
<glyph unicode="&#xba;" horiz-adv-x="798" d="M61 1096q0 160 95 259t243 99t243 -99t95 -259t-95 -259.5t-243 -99.5t-243 99.5t-95 259.5zM287 1096q0 -91 10 -156.5t27 -99t35.5 -48t39.5 -14.5t39.5 14.5t36 48t27.5 99t10 156.5t-10 156.5t-27.5 98.5t-36 47.5t-39.5 14.5t-39.5 -14.5t-35.5 -47.5t-27 -98.5 t-10 -156.5z" />
<glyph unicode="&#xbb;" horiz-adv-x="901" d="M61 205l246 307l-246 307l52 51l389 -358l-389 -358zM287 92l379 420l-379 420l51 51l532 -471l-532 -471z" />
<glyph unicode="&#xbc;" horiz-adv-x="1443" d="M41 1208l225 226h154v-625l82 -21v-30h-389v30l82 21v461l-123 -92zM133 0l1055 1434h112l-1054 -1434h-113zM799 0v61q0 68 37 120.5t89.5 88t105 69.5t89.5 82.5t37 110.5q0 52 -31 87.5t-71 35.5q-17 0 -37.5 -2.5t-32.5 -4.5l-12 -3v-205q-31 -10 -72 -10 q-46 0 -74 28t-28 74q0 69 73.5 116.5t223.5 47.5q140 0 213 -57t73 -147q0 -58 -30.5 -104.5t-77.5 -74.5t-107.5 -55.5t-116.5 -48t-109 -51.5t-81 -66h389q4 41 24.5 82t38.5 62l19 20h41v-256h-573z" />
<glyph unicode="&#xbd;" horiz-adv-x="1406" d="M41 1208l225 226h154v-625l82 -21v-30h-389v30l82 21v461l-123 -92zM154 0l1054 1434h113l-1055 -1434h-112zM666 205l430 471h123v-461h127v-61h-127v-103l81 -20v-31h-389v31l82 20v103h-297zM748 215h245v266z" />
<glyph unicode="&#xbe;" horiz-adv-x="1447" d="M61 901q0 46 28.5 74.5t74.5 28.5q18 0 36 -3t27 -5l9 -3v-205q42 -10 81 -10q62 0 98 40t36 114q0 75 -33.5 114t-89.5 39h-54v41h54q34 0 63 39.5t29 104.5q0 64 -29 103.5t-63 39.5q-17 0 -37.5 -2.5t-32.5 -4.5l-12 -3v-205q-31 -10 -72 -10q-46 0 -74 28t-28 74 q0 69 73.5 116.5t223.5 47.5q130 0 203 -54.5t73 -129.5q0 -43 -23 -76t-56.5 -49t-66.5 -25.5t-56 -11.5l-23 -2q10 0 27.5 -2t61.5 -12.5t78 -27t61.5 -51.5t27.5 -81q0 -83 -79.5 -139t-238.5 -56q-150 0 -223.5 47.5t-73.5 116.5zM215 0l1055 1434h112l-1054 -1434h-113 zM707 205l430 471h123v-461h126v-61h-126v-103l81 -20v-31h-389v31l82 20v103h-297zM788 215h246v266z" />
<glyph unicode="&#xbf;" d="M72 -20q0 173 128.5 288t383.5 152l10 164h82l10 -195q-83 -33 -136 -78.5t-86.5 -128.5t-33.5 -202q0 -195 71.5 -282t215.5 -87q45 0 86 7.5t59 15.5l19 8v327q41 11 82 11q69 0 111 -42.5t42 -111.5q0 -48 -28 -94t-80 -85t-138.5 -63t-193.5 -24q-153 0 -270.5 32 t-189.5 89.5t-108 133t-36 165.5zM492 881q0 68 45.5 115.5t107.5 47.5t108 -47.5t46 -115.5t-46 -116t-108 -48t-107.5 48t-45.5 116z" />
<glyph unicode="&#xc0;" horiz-adv-x="1392" d="M-41 0v31l164 61l563 1362h62l583 -1393l103 -30v-31h-246q-201 0 -275 174l-104 246h-490l-135 -328l154 -61v-31h-379zM340 471h448l-225 539zM410 1843h266l82 -307h-72z" />
<glyph unicode="&#xc1;" horiz-adv-x="1392" d="M-41 0v31l164 61l563 1362h62l583 -1393l103 -30v-31h-246q-201 0 -275 174l-104 246h-490l-135 -328l154 -61v-31h-379zM340 471h448l-225 539zM676 1536l82 307h266l-276 -307h-72z" />
<glyph unicode="&#xc2;" horiz-adv-x="1392" d="M-41 0v31l164 61l563 1362h62l583 -1393l103 -30v-31h-246q-201 0 -275 174l-104 246h-490l-135 -328l154 -61v-31h-379zM340 471h448l-225 539zM430 1516l297 337l297 -337h-72l-225 143l-225 -143h-72z" />
<glyph unicode="&#xc3;" horiz-adv-x="1392" d="M-41 0v31l164 61l563 1362h62l583 -1393l103 -30v-31h-246q-201 0 -275 174l-104 246h-490l-135 -328l154 -61v-31h-379zM340 471h448l-225 539zM444 1577q0 119 48.5 177t136.5 58q41 0 78.5 -16t59.5 -35t51 -35t56 -16q38 0 65.5 27t27.5 65h41q0 -119 -48.5 -177 t-136.5 -58q-41 0 -78.5 16t-59.5 35t-51 35t-56 16q-38 0 -65.5 -27t-27.5 -65h-41z" />
<glyph unicode="&#xc4;" horiz-adv-x="1392" d="M-41 0v31l164 61l563 1362h62l583 -1393l103 -30v-31h-246q-201 0 -275 174l-104 246h-490l-135 -328l154 -61v-31h-379zM340 471h448l-225 539zM393 1700q0 61 41 102t103 41q61 0 102 -40.5t41 -102.5t-41 -103t-102 -41t-102.5 41t-41.5 103zM772 1700q0 62 41 102.5 t102 40.5q62 0 103 -41t41 -102q0 -62 -41.5 -103t-102.5 -41t-102 41t-41 103z" />
<glyph unicode="&#xc5;" horiz-adv-x="1392" d="M-41 0v31l164 61l536 1297q-71 19 -114 73.5t-43 124.5q0 85 62 145t153 60t153 -60t62 -145q0 -70 -44 -124.5t-114 -73.5l557 -1328l103 -30v-31h-246q-201 0 -275 174l-104 246h-490l-135 -328l154 -61v-31h-379zM340 471h448l-225 539zM604 1587q0 -60 33 -96.5 t80 -36.5t79.5 36.5t32.5 96.5t-32.5 96.5t-79.5 36.5t-80 -36.5t-33 -96.5z" />
<glyph unicode="&#xc6;" horiz-adv-x="2029" d="M-61 0v31l163 61l750 1342h1053v-369h-62q-5 4 -14 12t-32 37.5t-40.5 63t-32 89t-14.5 115.5h-420v-645h215q9 50 32 101.5t41 77.5l19 26h62v-461h-62q-8 10 -20.5 28.5t-37.5 72.5t-34 104h-215v-635h461q0 60 13.5 115t33 90.5t39.5 62t33 38.5l14 12h62v-369h-1117 v31l123 30v482h-526l-250 -451l154 -61v-31h-391zM457 594h495v788h-55z" />
<glyph unicode="&#xc7;" horiz-adv-x="1331" d="M92 717q0 353 177.5 550t469.5 197q54 0 107.5 -13.5t91 -33t67.5 -39.5t45 -34l15 -13q18 32 46.5 60.5t47.5 40.5l19 12h51v-389h-82q-2 7 -6 20t-19 50.5t-33.5 71t-49.5 75t-67 71t-87 50t-107 20.5q-52 0 -97.5 -21t-88.5 -71.5t-73.5 -128t-49 -199.5t-18.5 -276 q0 -697 378 -697q147 0 263 118.5t116 271.5h52q0 -179 -137.5 -310t-334.5 -131h-24v-71q89 0 141.5 -45t52.5 -109q0 -65 -56.5 -109.5t-158.5 -44.5q-27 0 -55.5 3t-43.5 5l-15 3v61q32 -20 73 -20q46 0 74.5 28t28.5 74t-30 74t-83 28v129q-284 26 -442 219t-158 523z " />
<glyph unicode="&#xc8;" horiz-adv-x="1320" d="M102 0v31l123 30v1311l-123 31v31h1096v-369h-61q-5 4 -14 12t-32 37.5t-40.5 63t-32 89t-14.5 115.5h-441v-645h236q9 50 32 101.5t41 77.5l19 26h61v-461h-61q-8 10 -20.5 28.5t-37.5 72.5t-34 104h-236v-635h481q0 60 14 115t33.5 90.5t39 62t33.5 38.5l14 12h61v-369 h-1137zM444 1843h267l82 -307h-72z" />
<glyph unicode="&#xc9;" horiz-adv-x="1320" d="M102 0v31l123 30v1311l-123 31v31h1096v-369h-61q-5 4 -14 12t-32 37.5t-40.5 63t-32 89t-14.5 115.5h-441v-645h236q9 50 32 101.5t41 77.5l19 26h61v-461h-61q-8 10 -20.5 28.5t-37.5 72.5t-34 104h-236v-635h481q0 60 14 115t33.5 90.5t39 62t33.5 38.5l14 12h61v-369 h-1137zM608 1536l82 307h266l-276 -307h-72z" />
<glyph unicode="&#xca;" horiz-adv-x="1320" d="M102 0v31l123 30v1311l-123 31v31h1096v-369h-61q-5 4 -14 12t-32 37.5t-40.5 63t-32 89t-14.5 115.5h-441v-645h236q9 50 32 101.5t41 77.5l19 26h61v-461h-61q-8 10 -20.5 28.5t-37.5 72.5t-34 104h-236v-635h481q0 60 14 115t33.5 90.5t39 62t33.5 38.5l14 12h61v-369 h-1137zM403 1556l297 338l297 -338h-71l-226 144l-225 -144h-72z" />
<glyph unicode="&#xcb;" horiz-adv-x="1320" d="M102 0v31l123 30v1311l-123 31v31h1096v-369h-61q-5 4 -14 12t-32 37.5t-40.5 63t-32 89t-14.5 115.5h-441v-645h236q9 50 32 101.5t41 77.5l19 26h61v-461h-61q-8 10 -20.5 28.5t-37.5 72.5t-34 104h-236v-635h481q0 60 14 115t33.5 90.5t39 62t33.5 38.5l14 12h61v-369 h-1137zM369 1720q0 62 41 103t102 41t102 -41t41 -103t-40.5 -102.5t-102.5 -40.5t-102.5 40.5t-40.5 102.5zM748 1720q0 62 41 103t102 41t102 -41t41 -103t-41 -102.5t-102 -40.5t-102 40.5t-41 102.5z" />
<glyph unicode="&#xcc;" horiz-adv-x="788" d="M96 1843h266l82 -307h-71zM102 0v31l123 30v1311l-123 31v31h584v-31l-123 -31v-1311l123 -30v-31h-584z" />
<glyph unicode="&#xcd;" horiz-adv-x="788" d="M102 0v31l123 30v1311l-123 31v31h584v-31l-123 -31v-1311l123 -30v-31h-584zM342 1536l82 307h266l-276 -307h-72z" />
<glyph unicode="&#xce;" horiz-adv-x="788" d="M96 1567l297 338l297 -338h-72l-225 143l-225 -143h-72zM102 0v31l123 30v1311l-123 31v31h584v-31l-123 -31v-1311l123 -30v-31h-584z" />
<glyph unicode="&#xcf;" horiz-adv-x="788" d="M61 1731q0 61 41 102t103 41q61 0 102 -41t41 -102q0 -62 -41 -103t-102 -41t-102.5 41.5t-41.5 102.5zM102 0v31l123 30v1311l-123 31v31h584v-31l-123 -31v-1311l123 -30v-31h-584zM440 1731q0 61 41 102t103 41t102.5 -41t40.5 -102q0 -62 -41 -103t-102 -41 q-62 0 -103 41.5t-41 102.5z" />
<glyph unicode="&#xd0;" horiz-adv-x="1464" d="M102 696v62h134v614l-123 31v31h522q366 0 562 -188t196 -529t-196 -529t-562 -188h-522v31l123 30v635h-134zM573 51h62q92 0 162.5 34t125 110t83 207t28.5 315t-28.5 315t-83 206.5t-125 109.5t-162.5 34h-62v-624h246v-62h-246v-645z" />
<glyph unicode="&#xd1;" horiz-adv-x="1515" d="M61 0v31l164 61v1270l-143 41v31h215q58 0 105 -12.5t82.5 -38t54.5 -44t45 -49.5l655 -768v819l-164 62v31h389v-31l-164 -62v-1372h-61l-952 1116v-993l164 -61v-31h-390zM522 1577q0 119 48.5 177t136.5 58q41 0 78.5 -16t59.5 -35t51 -35t56 -16q38 0 65 27t27 65h41 q0 -119 -48 -177t-136 -58q-41 0 -78.5 16t-60 35t-51.5 35t-56 16q-38 0 -65 -27t-27 -65h-41z" />
<glyph unicode="&#xd2;" horiz-adv-x="1515" d="M92 717q0 355 180.5 551t485.5 196t485 -196t180 -551t-180 -551.5t-485 -196.5t-485.5 196.5t-180.5 551.5zM451 717q0 -157 18.5 -281.5t48.5 -202.5t70.5 -129.5t82.5 -72.5t87 -21t87 21t82.5 72.5t70.5 129.5t48.5 202.5t18.5 281.5t-18.5 281.5t-48.5 202.5 t-70.5 129.5t-82.5 72t-87 20.5t-87 -20.5t-82.5 -72t-70.5 -129.5t-48.5 -202.5t-18.5 -281.5zM461 1843h266l82 -307h-72z" />
<glyph unicode="&#xd3;" horiz-adv-x="1515" d="M92 717q0 355 180.5 551t485.5 196t485 -196t180 -551t-180 -551.5t-485 -196.5t-485.5 196.5t-180.5 551.5zM451 717q0 -157 18.5 -281.5t48.5 -202.5t70.5 -129.5t82.5 -72.5t87 -21t87 21t82.5 72.5t70.5 129.5t48.5 202.5t18.5 281.5t-18.5 281.5t-48.5 202.5 t-70.5 129.5t-82.5 72t-87 20.5t-87 -20.5t-82.5 -72t-70.5 -129.5t-48.5 -202.5t-18.5 -281.5zM707 1536l81 307h267l-277 -307h-71z" />
<glyph unicode="&#xd4;" horiz-adv-x="1515" d="M92 717q0 355 180.5 551t485.5 196t485 -196t180 -551t-180 -551.5t-485 -196.5t-485.5 196.5t-180.5 551.5zM451 717q0 -157 18.5 -281.5t48.5 -202.5t70.5 -129.5t82.5 -72.5t87 -21t87 21t82.5 72.5t70.5 129.5t48.5 202.5t18.5 281.5t-18.5 281.5t-48.5 202.5 t-70.5 129.5t-82.5 72t-87 20.5t-87 -20.5t-82.5 -72t-70.5 -129.5t-48.5 -202.5t-18.5 -281.5zM461 1567l297 338l297 -338h-72l-225 143l-226 -143h-71z" />
<glyph unicode="&#xd5;" horiz-adv-x="1515" d="M92 717q0 355 180.5 551t485.5 196t485 -196t180 -551t-180 -551.5t-485 -196.5t-485.5 196.5t-180.5 551.5zM451 717q0 -157 18.5 -281.5t48.5 -202.5t70.5 -129.5t82.5 -72.5t87 -21t87 21t82.5 72.5t70.5 129.5t48.5 202.5t18.5 281.5t-18.5 281.5t-48.5 202.5 t-70.5 129.5t-82.5 72t-87 20.5t-87 -20.5t-82.5 -72t-70.5 -129.5t-48.5 -202.5t-18.5 -281.5zM485 1597q0 119 48.5 177.5t136.5 58.5q41 0 78.5 -16t59.5 -35t51 -35t56 -16q38 0 65.5 27t27.5 65h41q0 -119 -48.5 -177.5t-136.5 -58.5q-41 0 -78.5 16t-60 35.5 t-51.5 35.5t-56 16q-38 0 -65 -27.5t-27 -65.5h-41z" />
<glyph unicode="&#xd6;" horiz-adv-x="1515" d="M92 717q0 355 180.5 551t485.5 196t485 -196t180 -551t-180 -551.5t-485 -196.5t-485.5 196.5t-180.5 551.5zM424 1731q0 61 41 102t102 41q62 0 103 -41t41 -102t-41.5 -102.5t-102.5 -41.5t-102 41t-41 103zM451 717q0 -157 18.5 -281.5t48.5 -202.5t70.5 -129.5 t82.5 -72.5t87 -21t87 21t82.5 72.5t70.5 129.5t48.5 202.5t18.5 281.5t-18.5 281.5t-48.5 202.5t-70.5 129.5t-82.5 72t-87 20.5t-87 -20.5t-82.5 -72t-70.5 -129.5t-48.5 -202.5t-18.5 -281.5zM803 1731q0 61 40.5 102t102.5 41t103 -41t41 -102t-41 -102.5t-103 -41.5 q-61 0 -102 41t-41 103z" />
<glyph unicode="&#xd7;" horiz-adv-x="831" d="M61 406l289 290l-289 289l66 66l289 -289l289 289l65 -66l-289 -289l289 -290l-65 -64l-289 289l-289 -289z" />
<glyph unicode="&#xd8;" horiz-adv-x="1515" d="M92 717q0 355 180.5 551t485.5 196q253 0 424 -145l88 115h71l-118 -156q200 -210 200 -561q0 -355 -180 -551.5t-485 -196.5q-255 0 -424 146l-88 -115h-72l117 154q-93 99 -146 242t-53 321zM451 717q0 -192 24 -324l549 719q-40 161 -112 236t-154 75q-45 0 -87 -20.5 t-82.5 -72t-70.5 -129.5t-48.5 -202.5t-18.5 -281.5zM489 319q40 -161 112.5 -235t156.5 -74q45 0 87 21t82.5 72.5t70.5 129.5t48.5 202.5t18.5 281.5q0 164 -25 321z" />
<glyph unicode="&#xd9;" horiz-adv-x="1454" d="M72 1403v31h583v-31l-123 -31v-860q0 -265 81.5 -378.5t236.5 -113.5q69 0 135 34.5t118.5 96t84 156t31.5 205.5v829l-164 62v31h389v-31l-164 -62v-829q0 -248 -133.5 -395.5t-337.5 -147.5q-302 0 -458 142.5t-156 400.5v860zM553 1843h266l82 -307h-72z" />
<glyph unicode="&#xda;" horiz-adv-x="1454" d="M72 1403v31h583v-31l-123 -31v-860q0 -265 81.5 -378.5t236.5 -113.5q69 0 135 34.5t118.5 96t84 156t31.5 205.5v829l-164 62v31h389v-31l-164 -62v-829q0 -248 -133.5 -395.5t-337.5 -147.5q-302 0 -458 142.5t-156 400.5v860zM758 1536l82 307h266l-277 -307h-71z" />
<glyph unicode="&#xdb;" horiz-adv-x="1454" d="M72 1403v31h583v-31l-123 -31v-860q0 -265 81.5 -378.5t236.5 -113.5q69 0 135 34.5t118.5 96t84 156t31.5 205.5v829l-164 62v31h389v-31l-164 -62v-829q0 -248 -133.5 -395.5t-337.5 -147.5q-302 0 -458 142.5t-156 400.5v860zM532 1556l297 338l297 -338h-71l-226 144 l-225 -144h-72z" />
<glyph unicode="&#xdc;" horiz-adv-x="1454" d="M72 1403v31h583v-31l-123 -31v-860q0 -265 81.5 -378.5t236.5 -113.5q69 0 135 34.5t118.5 96t84 156t31.5 205.5v829l-164 62v31h389v-31l-164 -62v-829q0 -248 -133.5 -395.5t-337.5 -147.5q-302 0 -458 142.5t-156 400.5v860zM475 1720q0 62 41 103t102 41 q62 0 103 -41t41 -103q0 -61 -41 -102t-103 -41t-102.5 40.5t-40.5 102.5zM854 1720q0 62 41 103t102 41t102.5 -41t41.5 -103q0 -61 -41 -102t-103 -41q-61 0 -102 40.5t-41 102.5z" />
<glyph unicode="&#xdd;" horiz-adv-x="1361" d="M0 1403v31h256q108 0 171 -44.5t105 -129.5l304 -605l311 686l-154 62v31h389v-31l-163 -62l-359 -788v-492l123 -30v-31h-584v31l123 30v471l-420 840zM649 1536l82 307h266l-276 -307h-72z" />
<glyph unicode="&#xde;" horiz-adv-x="1433" d="M102 0v31l123 30v1311l-123 31v31h584v-31l-123 -31v-123h92q180 0 319 -39.5t225 -111.5t129.5 -168t43.5 -213t-43.5 -213t-129.5 -168t-225 -112t-319 -40h-92v-123l123 -30v-31h-584zM563 236h92q154 0 256.5 126.5t102.5 354.5t-102.5 354.5t-256.5 126.5h-92v-962z " />
<glyph unicode="&#xdf;" horiz-adv-x="1413" d="M61 0v31l123 30v963q0 195 132.5 317.5t359.5 122.5q92 0 173 -27.5t133.5 -71t83 -96t30.5 -102.5q0 -62 -12.5 -112t-31 -82t-36.5 -60t-30.5 -62t-12.5 -73q0 -41 21.5 -77t56 -64t76 -55.5t82.5 -58.5t75.5 -65.5t56 -84t21.5 -107.5q0 -135 -93 -216t-265 -81 q-40 0 -76 9.5t-58.5 23t-39.5 27t-24 23.5l-7 9q-18 -27 -46.5 -45t-47.5 -22l-19 -4h-51v348h82q2 -7 5.5 -18.5t16 -44.5t26.5 -63t36.5 -66.5t45.5 -63t54 -44.5t62 -18q34 0 57.5 36t23.5 108q0 54 -21.5 100t-56 80.5t-76 67.5t-82.5 67.5t-75.5 72.5t-56 91 t-21.5 115t18 112.5t43.5 85.5t51 69t43.5 80.5t18 102.5q0 96 -44 150.5t-109 54.5q-37 0 -65 -17t-51.5 -58t-35.5 -120t-12 -194v-1024h-451z" />
<glyph unicode="&#xe0;" horiz-adv-x="1239" d="M102 246q0 55 18 111t36 85l18 29q33 8 90.5 20.5t209 35t274.5 26.5v61q0 117 -14.5 196t-45 123t-70.5 62.5t-96 18.5q-27 0 -52.5 -5t-37.5 -11l-12 -5v-307q-41 -10 -82 -10q-69 0 -111.5 42t-42.5 111q0 94 96 160t283 66q241 0 376.5 -122t135.5 -319v-553l123 -30 v-31h-184q-55 0 -99 16t-68.5 38.5t-41 45t-21.5 38.5l-6 16q-3 -8 -10 -20t-32.5 -44t-56.5 -56.5t-84.5 -44.5t-113.5 -20q-184 0 -281.5 77.5t-97.5 199.5zM317 1454h267l82 -307h-72zM440 266q0 -114 36 -169.5t87 -55.5q34 0 66 17t52.5 41t36.5 48t23 41l7 17v297 q-55 0 -121.5 -5t-106.5 -11l-39 -5q-41 -92 -41 -215z" />
<glyph unicode="&#xe1;" horiz-adv-x="1239" d="M102 246q0 55 18 111t36 85l18 29q33 8 90.5 20.5t209 35t274.5 26.5v61q0 117 -14.5 196t-45 123t-70.5 62.5t-96 18.5q-27 0 -52.5 -5t-37.5 -11l-12 -5v-307q-41 -10 -82 -10q-69 0 -111.5 42t-42.5 111q0 94 96 160t283 66q241 0 376.5 -122t135.5 -319v-553l123 -30 v-31h-184q-55 0 -99 16t-68.5 38.5t-41 45t-21.5 38.5l-6 16q-3 -8 -10 -20t-32.5 -44t-56.5 -56.5t-84.5 -44.5t-113.5 -20q-184 0 -281.5 77.5t-97.5 199.5zM440 266q0 -114 36 -169.5t87 -55.5q34 0 66 17t52.5 41t36.5 48t23 41l7 17v297q-55 0 -121.5 -5t-106.5 -11 l-39 -5q-41 -92 -41 -215zM522 1147l82 307h266l-276 -307h-72z" />
<glyph unicode="&#xe2;" horiz-adv-x="1239" d="M102 246q0 55 18 111t36 85l18 29q33 8 90.5 20.5t209 35t274.5 26.5v61q0 117 -14.5 196t-45 123t-70.5 62.5t-96 18.5q-27 0 -52.5 -5t-37.5 -11l-12 -5v-307q-41 -10 -82 -10q-69 0 -111.5 42t-42.5 111q0 94 96 160t283 66q241 0 376.5 -122t135.5 -319v-553l123 -30 v-31h-184q-55 0 -99 16t-68.5 38.5t-41 45t-21.5 38.5l-6 16q-3 -8 -10 -20t-32.5 -44t-56.5 -56.5t-84.5 -44.5t-113.5 -20q-184 0 -281.5 77.5t-97.5 199.5zM317 1157l297 338l297 -338h-71l-226 143l-225 -143h-72zM440 266q0 -114 36 -169.5t87 -55.5q34 0 66 17 t52.5 41t36.5 48t23 41l7 17v297q-55 0 -121.5 -5t-106.5 -11l-39 -5q-41 -92 -41 -215z" />
<glyph unicode="&#xe3;" horiz-adv-x="1239" d="M102 246q0 55 18 111t36 85l18 29q33 8 90.5 20.5t209 35t274.5 26.5v61q0 117 -14.5 196t-45 123t-70.5 62.5t-96 18.5q-27 0 -52.5 -5t-37.5 -11l-12 -5v-307q-41 -10 -82 -10q-69 0 -111.5 42t-42.5 111q0 94 96 160t283 66q241 0 376.5 -122t135.5 -319v-553l123 -30 v-31h-184q-55 0 -99 16t-68.5 38.5t-41 45t-21.5 38.5l-6 16q-3 -8 -10 -20t-32.5 -44t-56.5 -56.5t-84.5 -44.5t-113.5 -20q-184 0 -281.5 77.5t-97.5 199.5zM332 1208q0 120 48 178t136 58q41 0 78.5 -16t60 -35.5t51.5 -35.5t56 -16q38 0 65 27.5t27 65.5h41 q0 -120 -48 -178t-136 -58q-41 0 -78.5 16t-60 35t-51.5 35t-56 16q-38 0 -65 -27t-27 -65h-41zM440 266q0 -114 36 -169.5t87 -55.5q34 0 66 17t52.5 41t36.5 48t23 41l7 17v297q-55 0 -121.5 -5t-106.5 -11l-39 -5q-41 -92 -41 -215z" />
<glyph unicode="&#xe4;" horiz-adv-x="1239" d="M102 246q0 55 18 111t36 85l18 29q33 8 90.5 20.5t209 35t274.5 26.5v61q0 117 -14.5 196t-45 123t-70.5 62.5t-96 18.5q-27 0 -52.5 -5t-37.5 -11l-12 -5v-307q-41 -10 -82 -10q-69 0 -111.5 42t-42.5 111q0 94 96 160t283 66q241 0 376.5 -122t135.5 -319v-553l123 -30 v-31h-184q-55 0 -99 16t-68.5 38.5t-41 45t-21.5 38.5l-6 16q-3 -8 -10 -20t-32.5 -44t-56.5 -56.5t-84.5 -44.5t-113.5 -20q-184 0 -281.5 77.5t-97.5 199.5zM281 1321q0 61 40.5 102t102.5 41t102.5 -41t40.5 -102t-40.5 -102t-102.5 -41t-102.5 41t-40.5 102zM440 266 q0 -114 36 -169.5t87 -55.5q34 0 66 17t52.5 41t36.5 48t23 41l7 17v297q-55 0 -121.5 -5t-106.5 -11l-39 -5q-41 -92 -41 -215zM659 1321q0 61 41 102t103 41q61 0 102 -41t41 -102t-41 -102t-102 -41q-62 0 -103 41t-41 102z" />
<glyph unicode="&#xe5;" horiz-adv-x="1239" d="M102 246q0 55 18 111t36 85l18 29q33 8 90.5 20.5t209 35t274.5 26.5v61q0 117 -14.5 196t-45 123t-70.5 62.5t-96 18.5q-27 0 -52.5 -5t-37.5 -11l-12 -5v-307q-41 -10 -82 -10q-69 0 -111.5 42t-42.5 111q0 94 96 160t283 66q241 0 376.5 -122t135.5 -319v-553l123 -30 v-31h-184q-55 0 -99 16t-68.5 38.5t-41 45t-21.5 38.5l-6 16q-3 -8 -10 -20t-32.5 -44t-56.5 -56.5t-84.5 -44.5t-113.5 -20q-184 0 -281.5 77.5t-97.5 199.5zM399 1362q0 85 62 145t153 60t153 -60t62 -145t-62 -145t-153 -60t-153 60t-62 145zM440 266q0 -114 36 -169.5 t87 -55.5q34 0 66 17t52.5 41t36.5 48t23 41l7 17v297q-55 0 -121.5 -5t-106.5 -11l-39 -5q-41 -92 -41 -215zM502 1362q0 -60 32.5 -96.5t79.5 -36.5t80 36.5t33 96.5t-33 96.5t-80 36.5t-79.5 -36.5t-32.5 -96.5z" />
<glyph unicode="&#xe6;" horiz-adv-x="1792" d="M102 246q0 55 18 106t36 75l18 24q33 8 90.5 20t209 34.5t274.5 26.5v82q0 117 -14.5 196t-45 123t-70.5 62.5t-96 18.5q-27 0 -52.5 -5t-37.5 -11l-12 -5v-307q-41 -10 -82 -10q-69 0 -111.5 42t-42.5 111q0 94 96 160t283 66q74 0 138.5 -19t103.5 -46.5t67 -54.5 t39 -46l11 -19q2 4 5.5 10.5t18 26t31 37t44.5 38.5t59.5 36.5t76 26t92.5 10.5q210 0 340.5 -118.5t130.5 -291.5q0 -27 -5 -52.5t-10 -37.5l-5 -12q-33 -7 -91.5 -17.5t-223 -27.5t-310.5 -17v-45q3 -226 67 -321t179 -95q120 0 208.5 82.5t88.5 184.5h51 q0 -128 -109 -223t-280 -95q-74 0 -138.5 20t-103 48.5t-66.5 57.5t-39 49l-11 20q-3 -4 -8.5 -11t-24.5 -27.5t-40.5 -38.5t-57 -40.5t-73.5 -39t-90 -27.5t-106 -11q-212 0 -316 76.5t-104 200.5zM440 246q0 -114 36 -170t87 -56q29 0 55 11t44.5 28t33.5 37.5t24.5 41.5 t16 38t9.5 28l2 11v266q-55 0 -121.5 -5t-106.5 -10l-39 -5q-41 -92 -41 -215zM1075 532q82 0 153.5 5t102.5 11l31 5q20 72 20 133q0 170 -45 249t-108 79q-149 0 -154 -471v-11z" />
<glyph unicode="&#xe7;" horiz-adv-x="1085" d="M82 512q0 254 146.5 398.5t406.5 144.5q187 0 283 -66t96 -160q0 -69 -42.5 -111t-111.5 -42q-18 0 -38.5 2.5t-31.5 5.5l-12 2v307q-41 21 -102 21q-57 0 -99.5 -23t-76.5 -77.5t-52 -155.5t-18 -246q0 -142 18 -240.5t52 -152t76.5 -76.5t99.5 -23q120 0 208.5 82.5 t88.5 184.5h51q0 -128 -109 -223t-280 -95h-10v-71q89 0 141.5 -45t52.5 -109q0 -65 -56.5 -109.5t-158.5 -44.5q-27 0 -56 3t-44 5l-15 3v61q33 -20 74 -20q46 0 74.5 28t28.5 74t-30 74t-83 28v127q-222 20 -346.5 163.5t-124.5 375.5z" />
<glyph unicode="&#xe8;" d="M82 512q0 251 138 397t364 146q224 0 357.5 -118t133.5 -292q0 -32 -5 -63t-10 -46l-5 -14q-33 -7 -91.5 -17t-223 -27t-310.5 -17q0 -123 18 -211t52 -137t77 -71t99 -22q120 0 208.5 82.5t88.5 184.5h51q0 -128 -109 -223t-280 -95q-260 0 -406.5 144.5t-146.5 398.5z M287 1454h266l82 -307h-72zM430 512q82 0 153.5 5t102.5 10l31 5q20 72 20 154q0 170 -45 249t-108 79q-154 0 -154 -502z" />
<glyph unicode="&#xe9;" d="M82 512q0 251 138 397t364 146q224 0 357.5 -118t133.5 -292q0 -32 -5 -63t-10 -46l-5 -14q-33 -7 -91.5 -17t-223 -27t-310.5 -17q0 -123 18 -211t52 -137t77 -71t99 -22q120 0 208.5 82.5t88.5 184.5h51q0 -128 -109 -223t-280 -95q-260 0 -406.5 144.5t-146.5 398.5z M430 512q82 0 153.5 5t102.5 10l31 5q20 72 20 154q0 170 -45 249t-108 79q-154 0 -154 -502zM512 1147l82 307h266l-276 -307h-72z" />
<glyph unicode="&#xea;" d="M82 512q0 251 138 397t364 146q224 0 357.5 -118t133.5 -292q0 -32 -5 -63t-10 -46l-5 -14q-33 -7 -91.5 -17t-223 -27t-310.5 -17q0 -123 18 -211t52 -137t77 -71t99 -22q120 0 208.5 82.5t88.5 184.5h51q0 -128 -109 -223t-280 -95q-260 0 -406.5 144.5t-146.5 398.5z M287 1157l297 338l297 -338h-72l-225 143l-226 -143h-71zM430 512q82 0 153.5 5t102.5 10l31 5q20 72 20 154q0 170 -45 249t-108 79q-154 0 -154 -502z" />
<glyph unicode="&#xeb;" d="M82 512q0 251 138 397t364 146q224 0 357.5 -118t133.5 -292q0 -32 -5 -63t-10 -46l-5 -14q-33 -7 -91.5 -17t-223 -27t-310.5 -17q0 -123 18 -211t52 -137t77 -71t99 -22q120 0 208.5 82.5t88.5 184.5h51q0 -128 -109 -223t-280 -95q-260 0 -406.5 144.5t-146.5 398.5z M250 1321q0 61 41 102t102 41q62 0 103 -41t41 -102t-41 -102t-103 -41q-61 0 -102 41t-41 102zM430 512q82 0 153.5 5t102.5 10l31 5q20 72 20 154q0 170 -45 249t-108 79q-154 0 -154 -502zM629 1321q0 61 40.5 102t102.5 41t102.5 -41t40.5 -102t-40.5 -102t-102.5 -41 t-102.5 41t-40.5 102z" />
<glyph unicode="&#xec;" horiz-adv-x="696" d="M51 1434h266l82 -308h-71zM82 0v31l123 30v902l-123 30v31h266q184 0 184 -184v-779l123 -30v-31h-573z" />
<glyph unicode="&#xed;" horiz-adv-x="696" d="M82 0v31l123 30v902l-123 30v31h266q184 0 184 -184v-779l123 -30v-31h-573zM276 1126l82 308h267l-277 -308h-72z" />
<glyph unicode="&#xee;" horiz-adv-x="696" d="M51 1147l297 338l297 -338h-72l-225 143l-225 -143h-72zM82 0v31l123 30v902l-123 30v31h266q184 0 184 -184v-779l123 -30v-31h-573z" />
<glyph unicode="&#xef;" horiz-adv-x="696" d="M-4 1311q0 61 41 102t102 41q62 0 103 -41t41 -102t-41.5 -102.5t-102.5 -41.5t-102 41t-41 103zM82 0v31l123 30v902l-123 30v31h266q184 0 184 -184v-779l123 -30v-31h-573zM375 1311q0 61 40.5 102t102.5 41t103 -41t41 -102t-41 -102.5t-103 -41.5q-61 0 -102 41 t-41 103z" />
<glyph unicode="&#xf0;" horiz-adv-x="1239" d="M72 471q0 222 136 362t345 140q55 0 103.5 -16t78.5 -38.5t52.5 -45t32.5 -38.5l9 -16q-13 253 -174 420l-84 -154l-43 27l90 164q-142 117 -337 117v41q213 0 389 -64l82 150l43 -27l-78 -143q211 -93 325.5 -294t114.5 -503q0 -280 -144 -432t-401 -152 q-249 0 -394.5 138t-145.5 364zM420 471q0 -128 17 -222t46 -144t61 -72.5t68 -22.5q38 0 71 22.5t62.5 72.5t46.5 144t17 222v21q0 230 -60.5 335t-156.5 105q-29 0 -57 -23t-55 -72t-43.5 -144t-16.5 -222z" />
<glyph unicode="&#xf1;" horiz-adv-x="1361" d="M82 0v31l123 30v902l-123 30v31h184q55 0 99 -16t68.5 -38.5t41 -45t21.5 -38.5l6 -16q3 8 10 20t32.5 44t56.5 56.5t84.5 44.5t113.5 20q172 0 285.5 -101.5t113.5 -236.5v-656l123 -30v-31h-266q-185 0 -185 184v533q0 128 -46.5 197t-106.5 69q-34 0 -66 -17 t-52.5 -41t-36.5 -48t-23 -41l-7 -17v-758l123 -30v-31h-573zM420 1188q0 119 48 177t136 58q41 0 78.5 -16t60 -35t51.5 -35t56 -16q38 0 65 27t27 65h41q0 -119 -48 -177t-136 -58q-41 0 -78.5 16t-60 35t-51.5 35t-56 16q-38 0 -65 -27t-27 -65h-41z" />
<glyph unicode="&#xf2;" horiz-adv-x="1249" d="M82 512q0 254 145 398.5t398 144.5t397.5 -144.5t144.5 -398.5t-144.5 -398.5t-397.5 -144.5t-398 144.5t-145 398.5zM328 1454h266l82 -307h-72zM430 512q0 -143 17 -245.5t46.5 -156t61.5 -77t70 -23.5t70 23.5t61 77t46 156t17 245.5t-17 245.5t-46 156t-61 77 t-70 23.5t-70 -23.5t-61.5 -77t-46.5 -156t-17 -245.5z" />
<glyph unicode="&#xf3;" horiz-adv-x="1228" d="M72 512q0 254 144.5 398.5t397.5 144.5q254 0 398.5 -144.5t144.5 -398.5t-144.5 -398.5t-398.5 -144.5q-253 0 -397.5 144.5t-144.5 398.5zM420 512q0 -143 17 -245.5t46 -156t61 -77t70 -23.5t70 23.5t61.5 77t46.5 156t17 245.5t-17 245.5t-46.5 156t-61.5 77 t-70 23.5t-70 -23.5t-61 -77t-46 -156t-17 -245.5zM543 1147l82 307h266l-277 -307h-71z" />
<glyph unicode="&#xf4;" horiz-adv-x="1249" d="M82 512q0 254 145 398.5t398 144.5t397.5 -144.5t144.5 -398.5t-144.5 -398.5t-397.5 -144.5t-398 144.5t-145 398.5zM328 1157l297 338l297 -338h-72l-225 143l-226 -143h-71zM430 512q0 -143 17 -245.5t46.5 -156t61.5 -77t70 -23.5t70 23.5t61 77t46 156t17 245.5 t-17 245.5t-46 156t-61 77t-70 23.5t-70 -23.5t-61.5 -77t-46.5 -156t-17 -245.5z" />
<glyph unicode="&#xf5;" horiz-adv-x="1249" d="M82 512q0 254 145 398.5t398 144.5t397.5 -144.5t144.5 -398.5t-144.5 -398.5t-397.5 -144.5t-398 144.5t-145 398.5zM342 1188q0 119 48 177t136 58q41 0 78.5 -16t60 -35t51.5 -35t56 -16q38 0 65 27t27 65h41q0 -119 -48 -177t-136 -58q-41 0 -78.5 16t-60 35 t-51.5 35t-56 16q-38 0 -65 -27t-27 -65h-41zM430 512q0 -143 17 -245.5t46.5 -156t61.5 -77t70 -23.5t70 23.5t61 77t46 156t17 245.5t-17 245.5t-46 156t-61 77t-70 23.5t-70 -23.5t-61.5 -77t-46.5 -156t-17 -245.5z" />
<glyph unicode="&#xf6;" horiz-adv-x="1249" d="M82 512q0 254 145 398.5t398 144.5t397.5 -144.5t144.5 -398.5t-144.5 -398.5t-397.5 -144.5t-398 144.5t-145 398.5zM291 1321q0 61 40.5 102t102.5 41t103 -41t41 -102t-41 -102t-103 -41t-102.5 41t-40.5 102zM430 512q0 -143 17 -245.5t46.5 -156t61.5 -77t70 -23.5 t70 23.5t61 77t46 156t17 245.5t-17 245.5t-46 156t-61 77t-70 23.5t-70 -23.5t-61.5 -77t-46.5 -156t-17 -245.5zM670 1321q0 61 41 102t102 41t102 -41t41 -102t-41 -102t-102 -41t-102 41t-41 102z" />
<glyph unicode="&#xf7;" horiz-adv-x="1024" d="M61 635v92h902v-92h-902zM358 307q0 61 46 107.5t108 46.5t108 -46.5t46 -107.5t-46 -107t-108 -46t-108 46t-46 107zM358 1055q0 61 46 107t108 46t108 -46t46 -107t-46 -107.5t-108 -46.5t-108 46.5t-46 107.5z" />
<glyph unicode="&#xf8;" horiz-adv-x="1249" d="M82 512q0 254 145 398.5t398 144.5q195 0 333 -99l56 68h71l-84 -102q78 -71 122 -176.5t44 -233.5q0 -254 -144.5 -398.5t-397.5 -144.5q-202 0 -334 97l-55 -66h-72l84 100q-78 73 -122 178.5t-44 233.5zM430 512q0 -111 8 -182l363 436q-24 132 -71.5 190t-104.5 58 q-38 0 -70 -23.5t-61.5 -77t-46.5 -156t-17 -245.5zM449 256q43 -246 176 -246q38 0 70 23.5t61 77t46 156t17 245.5q0 78 -8 180z" />
<glyph unicode="&#xf9;" horiz-adv-x="1331" d="M51 993v31h266q185 0 185 -184v-533q0 -128 46.5 -197t106.5 -69q34 0 66 17t52.5 41t36.5 48t23 41l7 17v758l-123 30v31h573v-31l-123 -30v-973h-20q-66 0 -119 17t-81 41t-47 48t-24 41l-6 17q-3 -8 -10 -20t-32.5 -44t-56.5 -56.5t-84.5 -44.5t-113.5 -20 q-172 0 -285.5 101.5t-113.5 236.5v656zM358 1454h267l82 -307h-72z" />
<glyph unicode="&#xfa;" horiz-adv-x="1331" d="M51 993v31h266q185 0 185 -184v-533q0 -128 46.5 -197t106.5 -69q34 0 66 17t52.5 41t36.5 48t23 41l7 17v758l-123 30v31h573v-31l-123 -30v-973h-20q-66 0 -119 17t-81 41t-47 48t-24 41l-6 17q-3 -8 -10 -20t-32.5 -44t-56.5 -56.5t-84.5 -44.5t-113.5 -20 q-172 0 -285.5 101.5t-113.5 236.5v656zM604 1126l82 308h266l-276 -308h-72z" />
<glyph unicode="&#xfb;" horiz-adv-x="1331" d="M51 993v31h266q185 0 185 -184v-533q0 -128 46.5 -197t106.5 -69q34 0 66 17t52.5 41t36.5 48t23 41l7 17v758l-123 30v31h573v-31l-123 -30v-973h-20q-66 0 -119 17t-81 41t-47 48t-24 41l-6 17q-3 -8 -10 -20t-32.5 -44t-56.5 -56.5t-84.5 -44.5t-113.5 -20 q-172 0 -285.5 101.5t-113.5 236.5v656zM379 1157l297 338l297 -338h-72l-225 143l-225 -143h-72z" />
<glyph unicode="&#xfc;" horiz-adv-x="1331" d="M51 993v31h266q185 0 185 -184v-533q0 -128 46.5 -197t106.5 -69q34 0 66 17t52.5 41t36.5 48t23 41l7 17v758l-123 30v31h573v-31l-123 -30v-973h-20q-66 0 -119 17t-81 41t-47 48t-24 41l-6 17q-3 -8 -10 -20t-32.5 -44t-56.5 -56.5t-84.5 -44.5t-113.5 -20 q-172 0 -285.5 101.5t-113.5 236.5v656zM342 1321q0 61 41 102t102 41q62 0 103 -41t41 -102t-41 -102t-103 -41q-61 0 -102 41t-41 102zM721 1321q0 61 40.5 102t102.5 41t103 -41t41 -102t-41 -102t-103 -41t-102.5 41t-40.5 102z" />
<glyph unicode="&#xfd;" d="M-41 993v31h256q107 0 169 -44t108 -130l256 -473l215 555l-154 61v31h379v-31l-164 -61l-410 -1055q-65 -166 -139 -241.5t-168 -75.5q-92 0 -143 49.5t-51 134.5q0 76 41.5 120t111.5 44q18 0 38.5 -2.5t31.5 -5.5l12 -2v-277q56 8 103.5 65t101.5 191l41 103l-533 983 zM567 1126l82 308h266l-276 -308h-72z" />
<glyph unicode="&#xfe;" horiz-adv-x="1280" d="M61 -379l123 31v1720l-123 31v31h267q184 0 184 -185v-327q4 5 11 14t32.5 32t54 40.5t74 32t94.5 14.5q185 0 302.5 -142t117.5 -401q0 -262 -122.5 -402.5t-327.5 -140.5q-40 0 -79 8.5t-66 20.5t-48.5 24t-32.5 20l-10 9v-399l123 -31v-31h-574v31zM512 113l8.5 -8.5 t22 -20t34 -25t42 -19.5t47.5 -9q42 0 72.5 20t57 70t40.5 148.5t14 242.5q0 471 -154 471q-32 0 -62.5 -17t-51.5 -41t-37.5 -48t-24.5 -41l-8 -17v-706z" />
<glyph unicode="&#xff;" d="M-41 993v31h256q107 0 169 -44t108 -130l256 -473l215 555l-154 61v31h379v-31l-164 -61l-410 -1055q-65 -166 -139 -241.5t-168 -75.5q-92 0 -143 49.5t-51 134.5q0 76 41.5 120t111.5 44q18 0 38.5 -2.5t31.5 -5.5l12 -2v-277q56 8 103.5 65t101.5 191l41 103l-533 983 zM297 1321q0 61 40.5 102t102.5 41t103 -41t41 -102t-41 -102t-103 -41t-102.5 41t-40.5 102zM676 1321q0 61 41 102t102 41q62 0 103 -41t41 -102t-41 -102t-103 -41q-61 0 -102 41t-41 102z" />
<glyph unicode="&#x152;" horiz-adv-x="2017" d="M92 717q0 341 196 529t562 188h1044v-369h-61q-5 4 -14 12t-32 37.5t-40.5 63t-32 89t-14.5 115.5h-420v-645h215q9 50 32 101.5t41 77.5l19 26h62v-461h-62q-8 10 -20.5 28.5t-37.5 72.5t-34 104h-215v-635h461q0 60 13.5 115t33 90.5t39.5 62t33 38.5l14 12h61v-369 h-1085q-366 0 -562 188t-196 529zM451 717q0 -184 28.5 -315t83 -207t125 -110t162.5 -34h92v1331h-92q-92 0 -162.5 -34t-125 -109.5t-83 -206.5t-28.5 -315z" />
<glyph unicode="&#x153;" horiz-adv-x="1873" d="M82 512q0 252 141.5 397.5t380.5 145.5q61 0 114.5 -10t91 -26.5t68.5 -36.5t50 -39.5t32 -36t18 -26.5l5 -10q2 4 5.5 10.5t17 26t30.5 37t46.5 38.5t63 36.5t82.5 26t103 10.5q210 0 340.5 -118.5t130.5 -291.5q0 -36 -5 -67t-10 -44l-5 -12q-33 -7 -91.5 -17t-223 -27 t-310.5 -17q0 -123 18 -211t52 -137t77 -71t99 -22q120 0 208.5 82.5t88.5 184.5h51q0 -128 -109 -223t-280 -95q-77 0 -144.5 19t-108.5 46t-71 54.5t-42 46.5l-13 19q-3 -8 -10.5 -20t-37.5 -44t-69 -56.5t-109 -44.5t-153 -20q-239 0 -380.5 145.5t-141.5 397.5zM430 512 q0 -143 17 -245.5t46.5 -156t61.5 -77t70 -23.5t70 23.5t61 77t46 156t17 245.5t-17 245.5t-46 156t-61 77t-70 23.5t-70 -23.5t-61.5 -77t-46.5 -156t-17 -245.5zM1157 512q82 0 153.5 5t102.5 10l31 5q20 72 20 154q0 170 -45 249t-108 79q-154 0 -154 -502z" />
<glyph unicode="&#x178;" horiz-adv-x="1361" d="M0 1403v31h256q108 0 171 -44.5t105 -129.5l304 -605l311 686l-154 62v31h389v-31l-163 -62l-359 -788v-492l123 -30v-31h-584v31l123 30v471l-420 840zM389 1690q0 62 40.5 102.5t102.5 40.5t103 -41t41 -102q0 -62 -41 -103t-103 -41q-61 0 -102 41t-41 103zM768 1690 q0 62 41 102.5t102 40.5q62 0 103 -41t41 -102q0 -62 -41.5 -103t-102.5 -41t-102 41t-41 103z" />
<glyph unicode="&#x2c6;" horiz-adv-x="675" d="M41 1126l297 338l297 -338h-72l-225 144l-225 -144h-72z" />
<glyph unicode="&#x2dc;" horiz-adv-x="645" d="M41 1198q0 120 48 178t136 58q41 0 78.5 -16t60 -35.5t51.5 -35.5t56 -16q38 0 65 27t27 65h41q0 -119 -48 -177t-136 -58q-41 0 -78.5 16t-60 35t-51.5 35t-56 16q-38 0 -65 -27t-27 -65h-41z" />
<glyph unicode="&#x2000;" horiz-adv-x="952" />
<glyph unicode="&#x2001;" horiz-adv-x="1905" />
<glyph unicode="&#x2002;" horiz-adv-x="952" />
<glyph unicode="&#x2003;" horiz-adv-x="1905" />
<glyph unicode="&#x2004;" horiz-adv-x="635" />
<glyph unicode="&#x2005;" horiz-adv-x="476" />
<glyph unicode="&#x2006;" horiz-adv-x="317" />
<glyph unicode="&#x2007;" horiz-adv-x="317" />
<glyph unicode="&#x2008;" horiz-adv-x="238" />
<glyph unicode="&#x2009;" horiz-adv-x="381" />
<glyph unicode="&#x200a;" horiz-adv-x="105" />
<glyph unicode="&#x2010;" horiz-adv-x="962" d="M72 614v93h819v-93h-819z" />
<glyph unicode="&#x2011;" horiz-adv-x="962" d="M72 614v93h819v-93h-819z" />
<glyph unicode="&#x2012;" horiz-adv-x="962" d="M72 614v93h819v-93h-819z" />
<glyph unicode="&#x2013;" d="M61 604v82h1024v-82h-1024z" />
<glyph unicode="&#x2014;" horiz-adv-x="1597" d="M61 604v82h1475v-82h-1475z" />
<glyph unicode="&#x2018;" horiz-adv-x="501" d="M92 1085q0 61 13.5 114t35.5 89.5t48 66.5t52 47.5t48 30t35 17.5l14 4l20 -51q-7 -2 -18 -6.5t-41 -22.5t-54 -41.5t-48 -64.5t-33 -90q41 30 92 30q62 0 108 -46t46 -107t-46 -107.5t-108 -46.5q-71 0 -117.5 50.5t-46.5 133.5z" />
<glyph unicode="&#x2019;" horiz-adv-x="501" d="M92 1300q0 62 46 108t108 46q71 0 117.5 -50.5t46.5 -133.5q0 -61 -13.5 -114t-35.5 -89.5t-48 -66.5t-52 -47.5t-48 -30t-35 -16.5l-14 -5l-21 51q7 2 18 6.5t41 23t54.5 41.5t48.5 64.5t33 90.5q-41 -31 -92 -31q-62 0 -108 46t-46 107z" />
<glyph unicode="&#x201a;" horiz-adv-x="501" d="M92 133q0 61 46 107.5t108 46.5q70 0 117 -51t47 -134t-25.5 -151.5t-61.5 -107t-72 -65t-61 -35.5l-26 -9l-21 51q7 2 18 6.5t41 22.5t54.5 41.5t48.5 64.5t33 90q-41 -30 -92 -30q-62 0 -108 46t-46 107z" />
<glyph unicode="&#x201c;" horiz-adv-x="890" d="M92 1085q0 61 13.5 114t35.5 89.5t48 66.5t52 47.5t48 30t35 17.5l14 4l20 -51q-7 -2 -18 -6.5t-41 -22.5t-54 -41.5t-48 -64.5t-33 -90q41 30 92 30q62 0 108 -46t46 -107t-46 -107.5t-108 -46.5q-71 0 -117.5 50.5t-46.5 133.5zM481 1085q0 61 13.5 114t35.5 89.5 t48 66.5t52 47.5t48 30t36 17.5l13 4l21 -51q-7 -2 -18 -6.5t-41 -22.5t-54.5 -41.5t-48.5 -64.5t-33 -90q41 30 92 30q62 0 108 -46t46 -107t-46.5 -107.5t-107.5 -46.5q-71 0 -117.5 50.5t-46.5 133.5z" />
<glyph unicode="&#x201d;" horiz-adv-x="890" d="M92 1300q0 62 46 108t108 46q71 0 117.5 -50.5t46.5 -133.5q0 -61 -13.5 -114t-35.5 -89.5t-48 -66.5t-52 -47.5t-48 -30t-35 -16.5l-14 -5l-21 51q7 2 18 6.5t41 23t54.5 41.5t48.5 64.5t33 90.5q-41 -31 -92 -31q-62 0 -108 46t-46 107zM481 1300q0 62 46.5 108 t107.5 46q71 0 117.5 -50.5t46.5 -133.5q0 -61 -13.5 -114t-35.5 -89.5t-48 -66.5t-52 -47.5t-48 -30t-36 -16.5l-13 -5l-21 51q7 2 18 6.5t41 23t54.5 41.5t48.5 64.5t33 90.5q-41 -31 -92 -31q-62 0 -108 46t-46 107z" />
<glyph unicode="&#x201e;" horiz-adv-x="890" d="M92 133q0 61 46 107.5t108 46.5q70 0 117 -51t47 -134t-25.5 -151.5t-61.5 -107t-72 -65t-61 -35.5l-26 -9l-21 51q7 2 18 6.5t41 22.5t54.5 41.5t48.5 64.5t33 90q-41 -30 -92 -30q-62 0 -108 46t-46 107zM481 133q0 61 46.5 107.5t107.5 46.5q70 0 117 -51t47 -134 t-25.5 -151.5t-61.5 -107t-72 -65t-62 -35.5l-25 -9l-21 51q7 2 18 6.5t41 22.5t54.5 41.5t48.5 64.5t33 90q-41 -30 -92 -30q-62 0 -108 46t-46 107z" />
<glyph unicode="&#x2022;" horiz-adv-x="675" d="M133 676q0 92 56.5 148.5t148.5 56.5t148.5 -56.5t56.5 -148.5t-56.5 -148.5t-148.5 -56.5t-148.5 56.5t-56.5 148.5z" />
<glyph unicode="&#x2026;" horiz-adv-x="1433" d="M92 133q0 61 46 107.5t108 46.5q61 0 107 -46t46 -108q0 -61 -45.5 -107t-107.5 -46t-108 46t-46 107zM563 133q0 61 46.5 107.5t107.5 46.5t107 -46t46 -108q0 -61 -46 -107t-107 -46q-62 0 -108 46t-46 107zM1034 133q0 61 46 107.5t108 46.5q61 0 107 -46t46 -108 q0 -61 -45.5 -107t-107.5 -46t-108 46t-46 107z" />
<glyph unicode="&#x202f;" horiz-adv-x="381" />
<glyph unicode="&#x2039;" horiz-adv-x="747" d="M31 512l594 492l61 -72l-481 -420l481 -420l-61 -72z" />
<glyph unicode="&#x203a;" horiz-adv-x="747" d="M61 92l482 420l-482 420l62 72l594 -492l-594 -492z" />
<glyph unicode="&#x205f;" horiz-adv-x="476" />
<glyph unicode="&#x20ac;" horiz-adv-x="1423" d="M20 553v61h166q-2 72 -2 103l2 82h-145v61h152q36 288 207.5 446t430.5 158q54 0 107.5 -13.5t91 -33t67.5 -39.5t45 -34l15 -13q18 32 46.5 60.5t47.5 40.5l19 12h51v-389h-82q-2 7 -6 20t-19 50.5t-33.5 71t-49.5 75t-67 71t-87 50t-107 20.5q-47 0 -88.5 -17 t-81.5 -57.5t-70.5 -102.5t-52.5 -158t-30 -218h405v-61h-409v-185h389v-61h-383q9 -118 32.5 -210t56.5 -152t78.5 -99t95.5 -55.5t110 -16.5q147 0 262.5 118.5t115.5 271.5h52q0 -179 -137 -310t-334 -131q-286 0 -465.5 151t-220.5 433h-175z" />
<glyph unicode="&#x2122;" horiz-adv-x="1822" d="M61 1178v256h676v-256h-41q-3 3 -8.5 9.5t-20 28t-25 44.5t-19.5 59.5t-9 73.5h-102v-584l82 -21v-30h-389v30l82 21v584h-103q0 -37 -8.5 -73t-20.5 -60.5t-24 -44t-21 -28.5l-8 -9h-41zM768 758v30l102 31v563l-82 21v31h175q50 0 94 -34.5t69 -78.5l170 -301l138 301 q20 44 61.5 78.5t91.5 34.5h164v-31l-82 -21v-573l82 -21v-30h-389v30l82 21v399l-215 -471h-41l-266 471v-389l102 -31v-30h-256z" />
<glyph unicode="&#x25fc;" horiz-adv-x="1024" d="M0 0v1024h1024v-1024h-1024z" />
</font>
</defs>
</svg>
